<?xml version="1.0" standalone="no"?>
<!DOCTYPE svg PUBLIC "-//W3C//DTD SVG 20010904//EN"
 "http://www.w3.org/TR/2001/REC-SVG-20010904/DTD/svg10.dtd">
<svg version="1.0" xmlns="http://www.w3.org/2000/svg"
 width="48.000000pt" height="48.000000pt" viewBox="0 0 48.000000 48.000000"
 preserveAspectRatio="xMidYMid meet">

<g transform="translate(0.000000,48.000000) scale(0.100000,-0.100000)"
fill="#000000" stroke="none">
<path d="M167 444 c-17 -9 -30 -26 -34 -45 -3 -16 -15 -36 -26 -44 -25 -18
-16 -49 12 -40 12 3 31 -1 46 -11 14 -9 28 -14 31 -11 3 3 -4 10 -15 17 -12 6
-21 17 -21 24 0 15 50 36 86 36 13 0 24 4 24 9 0 21 -68 28 -102 10 -11 -6
-22 -9 -24 -6 -10 10 10 39 37 52 61 32 131 11 174 -52 31 -47 32 -62 2 -56
-26 5 -149 -28 -130 -34 6 -2 33 2 60 10 26 8 63 12 82 9 31 -4 33 -3 26 19
-13 43 -47 91 -79 110 -37 23 -110 24 -149 3z m-11 -89 c-20 -14 -42 -25 -49
-25 -13 1 63 50 77 50 5 0 -8 -11 -28 -25z"/>
<path d="M30 248 c-45 -79 -38 -140 24 -197 23 -22 47 -27 101 -21 11 1 30 -1
43 -5 18 -6 22 -3 22 13 0 11 -7 22 -15 26 -11 4 -14 13 -9 30 7 30 -14 71
-56 111 -18 17 -39 45 -46 63 -8 17 -19 32 -24 32 -5 0 -23 -24 -40 -52z m50
17 c0 -8 23 -40 50 -70 37 -40 50 -63 50 -85 0 -40 -16 -38 -61 10 -21 22 -41
40 -45 40 -15 0 10 -58 39 -87 l31 -33 -31 0 c-23 0 -39 9 -62 35 -43 49 -45
102 -8 168 21 38 37 48 37 22z m100 -208 c19 -9 29 -16 22 -16 -19 -1 -66 25
-83 46 -13 17 -13 17 6 1 11 -9 36 -23 55 -31z"/>
<path d="M390 268 c0 -16 -11 -28 -33 -38 -27 -13 -36 -26 -57 -87 -14 -40
-31 -78 -37 -85 -7 -7 -13 -18 -13 -25 0 -19 113 -17 151 3 42 21 31 28 -14 9
-39 -16 -117 -20 -117 -6 0 5 7 14 14 21 8 6 20 37 26 67 19 89 89 142 82 62
-2 -19 -10 -44 -18 -56 -22 -35 1 -36 30 -2 15 18 26 43 26 60 0 34 16 30 30
-7 7 -17 5 -38 -5 -66 -18 -53 -11 -64 10 -15 21 51 19 81 -10 115 -14 17 -25
39 -25 51 0 14 -6 21 -20 21 -14 0 -20 -7 -20 -22z m30 -45 c0 -57 -5 -53 -13
10 -4 31 -3 46 3 42 6 -3 10 -27 10 -52z"/>
</g>
</svg>
