<svg version="1.1" id="Layer_1" xmlns="http://www.w3.org/2000/svg" xmlns:xlink="http://www.w3.org/1999/xlink" x="0px" y="0px"
	 width="100%" viewBox="0 0 275 183" enable-background="new 0 0 275 183" xml:space="preserve">
<path fill="#FEFFFE" opacity="1.000000" stroke="none" 
	d="
M201.000000,184.000000 
	C134.000015,184.000000 67.500015,184.000000 1.000018,184.000000 
	C1.000012,123.000015 1.000012,62.000031 1.000006,1.000034 
	C92.666634,1.000023 184.333267,1.000023 275.999939,1.000011 
	C275.999939,61.999966 275.999939,122.999931 275.999969,183.999939 
	C251.166672,184.000000 226.333328,184.000000 201.000000,184.000000 
M72.969498,63.998394 
	C72.969498,63.998394 72.907280,63.965103 72.567070,64.057487 
	C72.339958,64.153725 72.174034,64.313499 71.275101,64.889343 
	C65.742485,67.823326 60.395210,66.096863 55.732544,64.037651 
	C57.488655,62.319931 59.244766,60.602215 61.590557,58.843723 
	C62.191113,57.537212 62.791672,56.230701 63.392231,54.924191 
	C62.266197,54.970528 61.140167,55.016869 59.318836,54.783085 
	C58.170708,53.494587 57.022579,52.206085 55.874447,50.917583 
	C54.670433,52.929108 53.466419,54.940632 52.291878,57.405647 
	C52.291878,57.405647 52.408680,57.844826 52.207401,58.397552 
	C52.132389,59.482483 52.057377,60.567417 51.320766,61.898552 
	C49.906605,63.938156 48.492443,65.977760 46.378696,67.925293 
	C45.787468,66.701805 45.196243,65.478317 44.448738,63.931427 
	C42.003899,67.574722 40.651112,69.590645 38.753735,72.418114 
	C40.917042,73.288345 43.065292,74.152519 45.169682,75.856491 
	C45.101032,80.250252 45.032379,84.644012 44.890339,89.832207 
	C46.756119,95.209503 48.621895,100.586800 50.262302,106.810707 
	C50.337315,108.552406 50.412331,110.294113 50.291042,112.831177 
	C50.394524,115.681488 50.498005,118.531799 50.269012,122.107971 
	C50.414970,123.131775 50.560928,124.155586 50.439587,125.929436 
	C49.117588,130.328644 52.262436,130.032227 54.984901,131.040466 
	C53.607346,138.001022 52.229790,144.961594 49.959435,151.965073 
	C45.358669,152.457260 40.733635,152.801071 36.174305,153.546661 
	C35.043411,153.731598 34.125355,155.218063 33.109474,156.106293 
	C34.072430,156.790390 34.961464,157.912155 36.010048,158.089249 
	C44.308788,159.490906 52.690262,162.061050 60.948048,161.740540 
	C87.296150,160.717865 113.174110,165.599503 139.296188,166.716949 
	C161.534653,167.668259 183.973175,168.278336 205.916199,162.584457 
	C209.195084,161.733627 212.631866,161.491272 216.878632,160.962311 
	C219.229416,160.951569 221.580200,160.940811 224.394913,160.804977 
	C224.688858,160.649139 224.903625,160.419296 225.962708,160.080215 
	C234.360046,159.960495 242.875107,160.516220 251.757858,155.549316 
	C248.736832,154.609238 246.801926,154.007126 244.366547,153.112122 
	C243.998260,153.023163 243.629990,152.934204 243.213684,152.001328 
	C241.833267,146.805298 240.022110,141.677185 239.189285,136.394806 
	C238.293045,130.710236 238.314194,124.881012 238.027771,118.210587 
	C237.691742,115.136024 237.355698,112.061455 237.022324,108.166176 
	C236.237289,101.269638 234.498032,94.953064 227.381256,91.279053 
	C227.631241,90.313133 227.881226,89.347206 228.322464,87.902321 
	C226.843033,85.793335 225.723083,82.481796 223.786301,81.902832 
	C221.718063,81.284592 218.878693,83.246071 216.134140,84.162125 
	C217.557617,86.479454 218.320282,87.721016 219.205109,89.624130 
	C220.491821,91.438026 221.778534,93.251923 222.710297,95.731949 
	C222.133179,98.049683 221.612457,100.383385 220.962158,102.680397 
	C220.380371,104.735359 219.655731,106.749870 218.386139,109.124557 
	C216.841797,110.032570 215.297455,110.940590 213.032135,111.875992 
	C209.746277,110.467911 206.489822,108.985558 203.167389,107.669853 
	C198.642319,105.877876 193.455704,108.824562 193.202545,113.934433 
	C190.331696,123.287888 187.460846,132.641342 183.708069,141.995239 
	C178.445847,142.355408 173.183624,142.715561 167.415024,142.690262 
	C166.355179,141.173386 165.295334,139.656525 163.692581,137.623932 
	C162.807419,135.743668 161.922272,133.863403 161.089493,131.221619 
	C159.346695,128.846771 157.603882,126.471916 155.824661,123.403313 
	C154.851608,122.523972 153.878555,121.644630 153.234924,120.301949 
	C154.126083,118.896812 155.017242,117.491669 156.610107,115.928505 
	C158.407349,113.284279 160.204590,110.640053 162.577347,107.621033 
	C163.447876,105.769875 164.318390,103.918716 165.641281,101.661751 
	C167.183838,100.443024 168.726395,99.224297 170.032745,98.678810 
	C170.495743,99.489723 170.768265,100.743484 171.453308,101.038116 
	C175.280594,102.684219 182.547119,99.369400 184.918594,94.468788 
	C180.321075,95.041092 176.171402,95.557640 171.594574,96.261131 
	C171.310623,96.441772 171.156509,96.699944 171.105286,97.098892 
	C171.105286,97.098892 171.045990,97.133675 170.319199,97.134987 
	C169.892883,96.414551 169.130859,95.698196 169.122025,94.972687 
	C169.109970,93.981773 169.671280,92.983887 170.223221,91.337334 
	C173.604599,89.123459 174.380768,85.945900 174.231293,82.062187 
	C174.115173,79.045609 174.853714,75.996147 175.677795,72.445824 
	C175.868912,68.283745 172.654633,70.633293 171.262436,69.437401 
	C171.447464,68.655289 171.834930,67.201675 171.788422,67.187645 
	C169.756973,66.575211 167.486816,64.802605 165.321198,68.000648 
	C164.870880,68.005463 164.420578,68.010284 163.473419,67.558685 
	C160.006409,63.678040 156.539398,59.797394 152.999924,55.952663 
	C152.999924,55.952663 153.080673,55.957268 153.050125,55.372452 
	C152.727325,55.168171 152.404510,54.963890 151.655334,54.242611 
	C148.121368,52.385139 144.587418,50.527672 141.131851,48.034496 
	C140.031647,45.932327 138.931442,43.830158 137.831238,41.727989 
	C136.515839,42.439358 135.231995,43.219093 133.876831,43.844257 
	C132.292145,44.575310 130.645264,45.171597 128.986710,45.116192 
	C127.467010,44.264950 125.947319,43.413708 124.427620,42.562466 
	C124.501808,43.916183 120.214226,43.415920 122.330666,45.980999 
	C121.555664,46.308231 120.780663,46.635464 119.233833,47.111660 
	C116.910469,47.799686 114.587112,48.487709 111.695541,48.815735 
	C110.807068,48.689102 109.913155,48.433071 109.031570,48.470181 
	C108.037704,48.512012 107.054932,48.817738 106.000969,48.477608 
	C106.059830,48.309196 106.118683,48.140781 106.610168,47.590046 
	C106.474564,46.738590 106.338951,45.887131 106.040878,44.368835 
	C106.039734,43.912170 106.038597,43.455502 106.638184,42.733826 
	C107.950325,42.584507 109.262466,42.435184 110.574608,42.285862 
	C110.471054,41.795872 110.367508,41.305878 110.263954,40.815884 
	C108.540817,41.349968 106.817688,41.884052 104.772278,42.973869 
	C101.820717,46.192245 97.585854,48.634499 97.386139,54.043118 
	C97.140579,54.076618 96.895020,54.110119 96.178596,53.720901 
	C94.780479,52.446587 93.382355,51.172268 91.430244,49.371601 
	C89.448013,49.371601 87.465782,49.371601 85.483551,49.371601 
	C85.252869,49.730759 85.022186,50.089916 84.791504,50.449074 
	C86.001160,51.577133 87.210815,52.705196 88.888489,54.240181 
	C89.921646,54.885506 90.954796,55.530830 92.450829,56.631771 
	C94.993660,58.339844 95.649376,62.830334 93.243851,63.600292 
	C89.427887,64.821709 90.013512,67.481880 89.350647,70.308441 
	C88.907372,70.191399 88.464096,70.074356 88.101921,69.269188 
	C89.641586,65.321800 87.546349,63.704327 83.639275,62.546749 
	C82.752533,62.069492 81.865791,61.592236 81.078003,60.432220 
	C82.519661,59.930492 83.961319,59.428768 85.485008,58.898491 
	C82.193962,54.258163 77.999374,58.578976 73.958488,57.452515 
	C74.096397,59.789421 74.201004,61.561962 74.213356,63.344875 
	C74.213356,63.344875 74.277084,63.277367 73.748810,63.250668 
	C73.491203,63.476490 73.233604,63.702309 72.969498,63.998394 
M83.893257,53.715351 
	C83.805321,53.665802 83.717392,53.616257 83.629456,53.566708 
	C83.751961,53.711922 83.874458,53.857132 84.047630,54.542645 
	C84.285431,54.900661 84.523224,55.258675 84.761024,55.616684 
	C84.941193,55.471714 85.121361,55.326740 85.301537,55.181770 
	C84.868454,54.786858 84.435379,54.391945 83.893257,53.715351 
M168.004654,36.549145 
	C170.983322,32.867744 168.611984,30.566582 166.005280,27.999447 
	C164.691650,29.140226 163.391205,29.915916 162.617889,31.050797 
	C161.976608,31.991894 161.956406,33.356201 161.661057,34.533016 
	C164.517365,33.586334 163.395142,41.715748 168.004654,36.549145 
M209.395294,81.029633 
	C207.679718,79.749611 206.061020,78.264053 204.163605,77.369881 
	C203.801422,77.199188 201.418427,79.511597 201.565643,80.419228 
	C201.937332,82.711067 203.219284,84.855286 204.557098,88.068977 
	C205.925842,86.036720 206.448578,85.104950 207.122894,84.300179 
	C207.904266,83.367615 208.818878,82.546677 209.395294,81.029633 
M188.588379,59.925156 
	C189.334915,60.541748 190.109909,61.702171 190.822235,61.664894 
	C192.445389,61.579952 194.489487,61.356319 195.503403,60.335621 
	C196.353012,59.480339 195.985260,57.415775 196.156525,55.886662 
	C194.287445,55.706806 192.262283,55.019451 190.605255,55.529064 
	C189.535980,55.857910 189.006454,57.941669 188.588379,59.925156 
M115.913986,26.436663 
	C116.902122,25.073633 118.409882,23.803930 118.677917,22.311567 
	C118.831673,21.455481 117.129913,19.660938 115.976051,19.347710 
	C114.852699,19.042765 112.776466,19.683969 112.137726,20.611528 
	C109.664185,24.203531 111.895424,25.862497 115.913986,26.436663 
M84.818756,30.143877 
	C82.957291,31.457462 81.095825,32.771049 79.235909,34.083542 
	C80.999817,36.067909 82.561989,37.825325 84.327576,39.811573 
	C85.901558,37.948360 87.447105,36.118809 88.992653,34.289257 
	C88.411629,34.683369 87.830597,35.077477 87.249565,35.471584 
	C86.496140,33.929020 85.742722,32.386456 84.818756,30.143877 
M89.350571,60.666756 
	C89.469124,60.420486 89.587669,60.174217 89.706215,59.927944 
	C89.470161,59.856735 89.234100,59.785526 88.998047,59.714317 
	C88.971947,60.053085 88.945839,60.391850 89.350571,60.666756 
M121.483215,41.588085 
	C121.483215,41.588085 121.416862,41.477032 121.483215,41.588085 
z"/>
<path fill="#E7EFEE" opacity="1.000000" stroke="none" 
	d="
M167.921402,143.075745 
	C173.183624,142.715561 178.445847,142.355408 184.271027,142.189880 
	C184.834000,142.384521 184.934814,142.832809 184.621704,142.955521 
	C182.009277,146.026947 184.117004,147.596359 186.124084,149.490936 
	C186.050491,151.500046 186.067627,153.187073 185.970734,155.170685 
	C186.615601,156.282303 187.274628,157.664536 188.149933,157.818695 
	C193.176025,158.703827 198.242676,159.393509 203.316696,159.960724 
	C207.527893,160.431488 211.768188,160.641754 215.995605,160.967438 
	C212.631866,161.491272 209.195084,161.733627 205.916199,162.584457 
	C183.973175,168.278336 161.534653,167.668259 139.296188,166.716949 
	C113.174110,165.599503 87.296150,160.717865 60.948048,161.740540 
	C52.690262,162.061050 44.308788,159.490906 36.010048,158.089249 
	C34.961464,157.912155 34.072430,156.790390 33.109474,156.106293 
	C34.125355,155.218063 35.043411,153.731598 36.174305,153.546661 
	C40.733635,152.801071 45.358669,152.457260 50.542854,152.208344 
	C51.412666,152.964798 51.699059,153.477966 51.553753,153.990295 
	C47.753830,154.480637 44.385605,154.971817 41.017376,155.462997 
	C41.100567,156.229233 41.183754,156.995468 41.266941,157.761703 
	C61.683430,159.449875 82.090454,160.195877 102.461731,157.380539 
	C102.489632,156.762573 102.517540,156.144592 102.545441,155.526627 
	C101.366089,155.333694 100.186729,155.140747 98.792877,154.668518 
	C98.052086,152.900192 97.525810,151.411133 97.427376,149.944275 
	C101.936211,150.318710 106.034660,150.536423 110.093025,151.063004 
	C113.759811,151.538788 117.382790,152.352142 120.677750,153.057907 
	C117.235237,154.361023 117.509506,156.250732 120.339569,156.799103 
	C127.740067,158.233047 135.224960,159.569534 142.732056,160.025528 
	C151.208115,160.540390 159.783646,160.516647 168.240280,159.815247 
	C172.856644,159.432358 177.316528,157.162796 183.002625,155.382187 
	C180.344772,153.324371 178.772980,152.107422 177.226669,150.910217 
	C178.119354,150.089661 178.829269,149.437103 180.275131,148.108047 
	C176.696182,147.653000 174.110306,147.237335 171.507889,147.018265 
	C169.001450,146.807281 167.489777,145.872696 167.921402,143.075745 
M129.217239,160.042923 
	C126.803558,160.341064 124.389877,160.639206 121.976196,160.937332 
	C122.014366,161.335449 122.052536,161.733551 122.090714,162.131653 
	C126.331085,162.131653 130.571472,162.131653 134.811844,162.131653 
	C134.799973,161.868698 134.788086,161.605743 134.776215,161.342804 
	C133.193512,160.947998 131.610809,160.553207 129.217239,160.042923 
z"/>
<path fill="#16B7B4" opacity="1.000000" stroke="none" 
	d="
M141.053452,48.670204 
	C144.587418,50.527672 148.121368,52.385139 151.942169,54.766884 
	C152.512878,55.513191 152.796783,55.735229 153.080673,55.957268 
	C153.080673,55.957268 152.999924,55.952663 153.023392,56.315834 
	C154.128967,62.116989 155.211075,67.554977 156.222916,73.435364 
	C154.967163,79.650986 153.781662,85.424202 152.309937,90.916595 
	C147.931061,87.358360 141.052811,89.606171 138.229416,83.699478 
	C138.075806,83.378113 137.009567,83.530693 136.384460,83.390152 
	C134.244003,82.908928 132.110809,82.395340 129.900879,81.752396 
	C129.541168,81.372154 129.289368,81.418777 128.706482,81.794441 
	C127.213196,81.613396 126.084938,81.388489 124.968849,80.759689 
	C125.122101,78.885292 125.565933,77.358162 125.304947,75.962860 
	C125.109077,74.915672 123.547104,73.130608 123.375778,73.217461 
	C119.051445,75.409790 117.017822,71.172806 113.942932,69.619202 
	C118.495422,64.196678 123.049667,59.152733 128.090195,53.570217 
	C126.840408,51.250290 123.386314,51.061943 120.156906,50.527313 
	C121.948723,49.405056 123.543343,48.571964 125.556198,47.796173 
	C131.000778,48.125717 136.027115,48.397961 141.053452,48.670204 
z"/>
<path fill="#BDCBC8" opacity="1.000000" stroke="none" 
	d="
M167.668213,142.882996 
	C167.489777,145.872696 169.001450,146.807281 171.507889,147.018265 
	C174.110306,147.237335 176.696182,147.653000 180.275131,148.108047 
	C178.829269,149.437103 178.119354,150.089661 177.226669,150.910217 
	C178.772980,152.107422 180.344772,153.324371 183.002625,155.382187 
	C177.316528,157.162796 172.856644,159.432358 168.240280,159.815247 
	C159.783646,160.516647 151.208115,160.540390 142.732056,160.025528 
	C135.224960,159.569534 127.740067,158.233047 120.339569,156.799103 
	C117.509506,156.250732 117.235237,154.361023 120.987885,153.195648 
	C122.491310,153.606705 123.337242,153.921310 124.147217,154.648621 
	C127.406792,155.050827 130.702332,155.040329 134.436462,155.115265 
	C136.985992,155.107895 139.096924,155.015076 141.207840,154.922256 
	C141.783005,154.077972 142.358154,153.233673 142.933319,152.389389 
	C141.529434,151.873596 140.125549,151.357803 138.791321,150.627625 
	C138.860977,150.413223 138.983978,149.979431 139.375458,149.961884 
	C140.809982,149.940811 141.853012,149.937302 142.960907,150.316132 
	C143.230316,155.236221 146.106796,156.037033 150.261475,155.692612 
	C151.451981,155.815506 152.253693,155.839737 153.507004,155.974854 
	C158.533646,156.085724 163.108673,156.085724 167.961472,156.085724 
	C167.858719,153.194016 169.749115,150.091370 165.101349,149.662994 
	C165.050140,149.437164 164.943268,148.986557 165.103516,148.706329 
	C165.138977,146.989914 165.014191,145.553696 164.948883,143.730865 
	C164.750748,141.609390 164.493118,139.874512 164.235489,138.139648 
	C165.295334,139.656525 166.355179,141.173386 167.668213,142.882996 
M173.399734,155.659241 
	C173.512634,154.151733 173.625534,152.644226 173.738419,151.136703 
	C172.272705,151.473633 170.806976,151.810547 169.341263,152.147476 
	C170.435364,153.327621 171.529480,154.507767 173.399734,155.659241 
z"/>
<path fill="#C6D6D4" opacity="1.000000" stroke="none" 
	d="
M216.437119,160.964874 
	C211.768188,160.641754 207.527893,160.431488 203.316696,159.960724 
	C198.242676,159.393509 193.176025,158.703827 188.149933,157.818695 
	C187.274628,157.664536 186.615601,156.282303 186.282715,155.346924 
	C189.850693,156.909744 191.760727,155.656754 193.301254,152.680267 
	C195.597183,152.468964 197.514084,152.197021 199.938629,151.938782 
	C204.304855,151.946030 208.163406,151.939575 212.097687,151.858337 
	C212.173416,151.783539 212.359177,151.887497 212.131454,152.179932 
	C210.391754,153.201279 208.879761,153.930161 206.911789,154.878876 
	C213.082230,158.216583 216.994278,157.508514 218.391541,153.179199 
	C218.930634,152.285095 219.278030,151.611771 220.077515,150.960281 
	C225.366837,151.636826 230.204056,152.291550 234.893082,153.201462 
	C234.220932,154.793854 233.696960,156.131042 232.966232,157.995926 
	C236.190536,157.995926 238.503510,157.920074 240.809601,158.013992 
	C244.129608,158.149200 245.342514,156.550369 244.867020,153.405029 
	C246.801926,154.007126 248.736832,154.609238 251.757858,155.549316 
	C242.875107,160.516220 234.360046,159.960495 225.267975,160.156403 
	C224.280090,160.392242 224.065994,160.624741 223.930984,160.930054 
	C221.580200,160.940811 219.229416,160.951569 216.437119,160.964874 
z"/>
<path fill="#F7B95C" opacity="1.000000" stroke="none" 
	d="
M184.934814,142.832809 
	C184.934814,142.832809 184.834000,142.384521 184.712006,142.189667 
	C187.460846,132.641342 190.331696,123.287888 193.599701,113.515564 
	C195.286163,113.411743 196.575439,113.726784 198.077057,114.328888 
	C200.514786,115.422699 202.740204,116.229439 204.983765,117.023300 
	C205.001923,117.010422 204.978989,117.049820 205.065414,117.385361 
	C208.249481,119.583153 211.347137,121.445396 214.353622,123.644958 
	C213.220367,125.761177 212.178268,127.540085 211.078522,128.992889 
	C210.014313,127.110680 209.007767,125.554581 207.966888,123.668884 
	C205.457306,120.789406 205.113022,120.943596 201.611130,125.991814 
	C199.190094,126.539169 197.172043,127.084732 195.443115,127.552139 
	C196.121155,130.351654 196.562408,132.173569 196.740952,133.903259 
	C196.325851,133.755402 196.177261,133.675598 196.020020,133.650955 
	C195.864807,133.626602 195.581024,133.611725 195.557846,133.671661 
	C194.357529,136.775574 193.179001,139.887924 191.652420,142.966766 
	C189.842010,143.285721 188.390305,143.790421 186.906525,143.916031 
	C186.284317,143.968689 185.594101,143.218185 184.934814,142.832809 
z"/>
<path fill="#14615B" opacity="1.000000" stroke="none" 
	d="
M237.935074,119.114899 
	C238.314194,124.881012 238.293045,130.710236 239.189285,136.394806 
	C240.022110,141.677185 241.833267,146.805298 242.857574,152.572113 
	C240.455994,155.797516 238.488037,156.542023 236.664642,152.549896 
	C234.368347,145.235809 232.105286,138.279129 229.916077,130.953522 
	C230.394745,130.097748 230.946396,129.672379 231.180176,129.113937 
	C232.522293,125.907890 238.686584,125.192238 236.132080,119.668625 
	C236.849670,119.333549 237.392380,119.224228 237.935074,119.114899 
z"/>
<path fill="#ED704A" opacity="1.000000" stroke="none" 
	d="
M50.706886,125.179390 
	C50.560928,124.155586 50.414970,123.131775 50.575981,122.132278 
	C52.087727,122.649712 53.292507,123.142830 54.286041,123.549484 
	C53.136192,121.586395 52.326538,120.684166 52.052921,119.641296 
	C51.397003,117.141312 50.993015,114.575218 50.487347,112.035812 
	C50.412331,110.294113 50.337315,108.552406 50.673889,106.291649 
	C51.081169,104.750114 51.471661,103.478691 51.009121,102.745163 
	C47.765209,97.600716 50.975613,93.506645 53.262199,89.082581 
	C53.932541,88.914688 54.326797,88.863319 55.127514,88.927979 
	C56.286564,94.422112 57.553360,99.791389 57.645977,105.180840 
	C57.737141,110.485847 56.637756,115.811310 56.082611,121.433960 
	C56.150661,122.145462 56.196861,122.550797 56.149593,123.276749 
	C55.938354,124.026138 55.820583,124.454910 55.348640,124.957687 
	C53.565281,125.080925 52.136082,125.130157 50.706886,125.179390 
z"/>
<path fill="#189B90" opacity="1.000000" stroke="none" 
	d="
M55.052948,64.244225 
	C60.395210,66.096863 65.742485,67.823326 71.868607,64.745667 
	C72.714859,64.462692 72.863251,64.250397 72.907280,63.965103 
	C72.907280,63.965103 72.969498,63.998394 73.235550,63.951000 
	C73.760094,63.694862 74.018585,63.486115 74.277084,63.277367 
	C74.277084,63.277367 74.213356,63.344875 74.619400,63.277565 
	C75.743340,63.152210 76.461235,63.094170 77.230782,63.391510 
	C77.307564,64.468277 77.332695,65.189659 77.185745,66.241928 
	C72.969734,68.724312 68.925797,70.875809 64.504036,73.030106 
	C61.756264,73.036850 59.386303,73.040802 56.749756,72.750732 
	C53.326927,72.967056 50.170685,73.477402 46.978798,73.522812 
	C46.840969,72.444870 46.738781,71.831841 46.654739,70.897446 
	C46.808014,69.723167 46.943150,68.870270 47.078285,68.017365 
	C48.492443,65.977760 49.906605,63.938156 51.826378,62.072384 
	C53.238972,62.912220 54.145958,63.578224 55.052948,64.244225 
z"/>
<path fill="#DCE9E7" opacity="1.000000" stroke="none" 
	d="
M227.204361,92.012337 
	C234.498032,94.953064 236.237289,101.269638 236.690765,108.626823 
	C235.244507,109.727768 234.129791,110.368065 232.978027,110.632446 
	C230.889206,109.712593 228.863510,108.891937 226.778931,108.695190 
	C224.209625,108.452705 221.591263,108.729713 218.994110,108.782219 
	C219.655731,106.749870 220.380371,104.735359 220.962158,102.680397 
	C221.612457,100.383385 222.133179,98.049683 223.231415,95.379005 
	C224.771881,95.026062 225.791245,95.026062 226.786331,95.026062 
	C226.945389,93.879364 227.074875,92.945854 227.204361,92.012337 
M233.711700,105.455574 
	C233.599945,106.034370 233.488174,106.613159 233.376419,107.191956 
	C233.786575,107.196968 234.196747,107.201988 234.606903,107.207001 
	C234.509232,106.625557 234.411575,106.044121 233.711700,105.455574 
z"/>
<path fill="#A6D5D4" opacity="1.000000" stroke="none" 
	d="
M162.001846,107.995834 
	C160.204590,110.640053 158.407349,113.284279 155.937927,115.877472 
	C154.940582,114.551651 154.615417,113.276863 154.582886,111.938683 
	C154.548904,110.775360 154.222321,109.675430 153.895721,108.575500 
	C153.273376,109.005859 152.651031,109.436218 151.743469,109.874397 
	C150.974457,110.139404 150.490677,110.396591 149.994904,110.330299 
	C149.681808,109.482079 149.380737,108.957336 149.079666,108.432587 
	C148.432053,109.483444 147.784439,110.534302 146.956299,111.807617 
	C145.845749,112.685921 144.915741,113.341759 143.744965,114.160034 
	C143.330582,114.863396 143.156982,115.404327 142.995300,115.969055 
	C143.007187,115.992844 142.954208,115.988045 142.602844,115.984726 
	C141.139435,114.962868 140.027390,113.944328 138.927521,112.939575 
	C138.939682,112.953362 138.944473,112.943214 139.326599,112.954857 
	C140.452057,111.931129 141.195374,110.895760 141.949921,109.643204 
	C141.961166,109.426033 142.038116,108.997963 142.427185,108.998703 
	C144.072784,108.839119 145.329315,108.678787 146.585831,108.518463 
	C146.566574,108.170868 146.547318,107.823280 146.528061,107.475693 
	C145.625229,107.297348 144.722412,107.119003 143.923645,106.655197 
	C144.681625,105.902908 145.335556,105.436089 146.229462,104.878922 
	C146.623505,104.494476 146.777557,104.200371 146.940308,103.956131 
	C146.949020,104.005997 146.898315,103.918266 147.259766,103.919144 
	C151.085739,101.615051 154.550278,99.310089 158.225586,97.280426 
	C159.624863,101.035759 160.813354,104.515793 162.001846,107.995834 
z"/>
<path fill="#F0B962" opacity="1.000000" stroke="none" 
	d="
M88.020821,69.957306 
	C88.464096,70.074356 88.907372,70.191399 90.016815,70.247742 
	C91.727562,69.489426 92.772133,68.791809 94.020691,68.378654 
	C95.443741,69.746887 96.662827,70.830658 97.881905,71.914429 
	C97.282265,72.219307 96.682625,72.524178 96.061783,72.870560 
	C96.040596,72.912079 96.131516,72.932716 96.045639,72.713867 
	C95.578804,72.565155 95.197838,72.635292 94.737251,72.664154 
	C94.657631,72.622887 94.495117,72.698761 94.135841,72.718185 
	C90.432503,73.330368 87.119156,73.953003 87.662254,78.860184 
	C85.198441,79.323997 83.081024,79.592873 80.717857,79.735916 
	C79.936554,79.496094 79.400993,79.382103 78.536911,79.151489 
	C77.288689,78.917358 76.368980,78.799850 75.350899,78.319237 
	C75.085678,76.965996 74.918831,75.975853 74.954239,74.693092 
	C76.104294,72.270950 77.052094,70.141434 78.416489,68.009262 
	C81.895668,68.656845 84.958244,69.307076 88.020821,69.957306 
z"/>
<path fill="#C5DBDC" opacity="1.000000" stroke="none" 
	d="
M197.864731,114.041824 
	C196.575439,113.726784 195.286163,113.411743 193.664551,113.129852 
	C193.455704,108.824562 198.642319,105.877876 203.167389,107.669853 
	C206.489822,108.985558 209.746277,110.467911 213.615051,112.152122 
	C215.494522,113.990288 216.791046,115.552315 217.899933,117.424240 
	C217.405365,118.893105 217.098450,120.052086 216.434082,121.155380 
	C212.377411,119.749733 208.678207,118.399780 204.978989,117.049820 
	C204.978989,117.049820 205.001923,117.010422 204.832870,116.723000 
	C202.397461,115.637657 200.131088,114.839745 197.864731,114.041824 
z"/>
<path fill="#7BB7B7" opacity="1.000000" stroke="none" 
	d="
M156.293167,72.992966 
	C155.211075,67.554977 154.128967,62.116989 153.059631,56.297874 
	C156.539398,59.797394 160.006409,63.678040 163.733307,68.081749 
	C164.292297,69.087265 164.591400,69.569710 164.947266,70.384430 
	C165.636581,72.148811 166.269135,73.580917 166.902298,75.306122 
	C167.231125,76.026192 167.559341,76.453178 167.931946,77.276047 
	C167.832840,78.453682 167.689331,79.235428 167.239014,80.016312 
	C162.905365,80.932419 160.970261,78.291466 159.018250,75.500336 
	C158.327377,74.512444 157.213776,73.820190 156.293167,72.992966 
z"/>
<path fill="#CCDFDF" opacity="1.000000" stroke="none" 
	d="
M233.015060,111.008362 
	C234.129791,110.368065 235.244507,109.727768 236.689438,109.037186 
	C237.355698,112.061455 237.691742,115.136024 237.981415,118.662750 
	C237.392380,119.224228 236.849670,119.333549 235.733322,119.685593 
	C231.178253,119.725891 227.196838,119.523483 223.168869,118.977554 
	C223.093277,117.162979 223.064240,115.691917 223.404510,114.121323 
	C226.854248,113.017319 229.934647,112.012840 233.015060,111.008362 
z"/>
<path fill="#E76440" opacity="1.000000" stroke="none" 
	d="
M163.964035,137.881790 
	C164.493118,139.874512 164.750748,141.609390 164.553772,143.743973 
	C161.045883,144.134781 157.992584,144.125870 154.899994,143.746460 
	C154.248810,141.260056 153.636902,139.144165 153.390137,137.015991 
	C156.182556,135.330200 158.609833,133.656662 161.037109,131.983139 
	C161.922272,133.863403 162.807419,135.743668 163.964035,137.881790 
z"/>
<path fill="#11887E" opacity="1.000000" stroke="none" 
	d="
M46.636597,71.218819 
	C46.738781,71.831841 46.840969,72.444870 46.965900,73.926353 
	C46.743084,75.753777 46.222240,76.738670 46.309624,77.666267 
	C46.488052,79.560478 46.691868,81.586861 47.559837,83.194588 
	C47.801125,83.641518 50.403671,82.761215 51.933498,82.578102 
	C53.893349,82.343529 55.863880,82.198235 57.914108,82.356796 
	C58.262508,84.062523 58.526608,85.425926 58.486954,86.913628 
	C57.029156,87.629272 55.875107,88.220612 54.721054,88.811951 
	C54.326797,88.863319 53.932541,88.914688 52.819382,89.043854 
	C49.721561,89.093689 47.342644,89.065727 44.963726,89.037773 
	C45.032379,84.644012 45.101032,80.250252 45.430794,75.194061 
	C46.006805,73.427368 46.321705,72.323090 46.636597,71.218819 
z"/>
<path fill="#14977D" opacity="1.000000" stroke="none" 
	d="
M167.545807,80.017166 
	C167.689331,79.235428 167.832840,78.453682 168.033737,77.016525 
	C168.385818,75.904892 168.680496,75.448677 169.263489,74.861870 
	C169.959778,74.257973 170.367767,73.784668 171.102554,73.279953 
	C172.690369,73.152802 173.951370,73.057045 175.212387,72.961296 
	C174.853714,75.996147 174.115173,79.045609 174.231293,82.062187 
	C174.380768,85.945900 173.604599,89.123459 169.724258,91.696640 
	C168.924576,90.820122 168.547638,89.596565 168.345840,88.344788 
	C168.165863,87.228371 168.179459,86.080742 168.070877,84.534393 
	C167.871353,82.753647 167.708572,81.385406 167.545807,80.017166 
z"/>
<path fill="#CCDFDF" opacity="1.000000" stroke="none" 
	d="
M55.702805,124.883675 
	C55.820583,124.454910 55.938354,124.026138 56.414291,123.119232 
	C57.846386,122.093742 58.920319,121.546394 60.005135,121.424210 
	C59.862774,123.159958 59.787132,124.485146 59.543625,125.778740 
	C58.018509,133.880798 56.455959,141.975800 54.774307,150.383438 
	C54.439415,151.788528 54.236015,152.883316 53.691574,153.986389 
	C52.895504,153.993500 52.440479,153.992325 51.985451,153.991150 
	C51.699059,153.477966 51.412666,152.964798 50.989250,152.186890 
	C52.229790,144.961594 53.607346,138.001022 55.289207,130.375885 
	C55.629944,128.102081 55.666374,126.492882 55.702805,124.883675 
z"/>
<path fill="#F3734D" opacity="1.000000" stroke="none" 
	d="
M161.063293,131.602386 
	C158.609833,133.656662 156.182556,135.330200 153.195053,136.849182 
	C152.417374,135.794525 152.199921,134.894394 151.981873,133.664688 
	C150.966980,130.854660 149.952652,128.374222 149.182556,125.619019 
	C151.571564,124.928528 153.716324,124.512794 155.861084,124.097061 
	C157.603882,126.471916 159.346695,128.846771 161.063293,131.602386 
z"/>
<path fill="#3D261A" opacity="1.000000" stroke="none" 
	d="
M154.290253,112.002075 
	C154.615417,113.276863 154.940582,114.551651 155.587067,115.956482 
	C155.017242,117.491669 154.126083,118.896812 152.750793,120.335312 
	C149.675949,118.522804 147.145630,117.535835 144.593613,120.746078 
	C143.829468,119.067390 143.391830,117.527718 142.954193,115.988045 
	C142.954208,115.988045 143.007187,115.992844 143.245834,115.817558 
	C143.651566,115.094048 143.818649,114.545822 143.985718,113.997597 
	C144.915741,113.341759 145.845749,112.685921 147.317703,111.692932 
	C148.575394,111.121773 149.291153,110.887764 150.006897,110.653763 
	C150.490677,110.396591 150.974457,110.139404 151.833389,110.195938 
	C152.902451,111.007126 153.596344,111.504601 154.290253,112.002075 
z"/>
<path fill="#F4B1A4" opacity="1.000000" stroke="none" 
	d="
M232.978027,110.632446 
	C229.934647,112.012840 226.854248,113.017319 223.088913,114.192535 
	C220.965195,115.280304 219.526382,116.197327 218.087585,117.114349 
	C216.791046,115.552315 215.494522,113.990288 213.975555,112.138428 
	C215.297455,110.940590 216.841797,110.032570 218.690125,108.953384 
	C221.591263,108.729713 224.209625,108.452705 226.778931,108.695190 
	C228.863510,108.891937 230.889206,109.712593 232.978027,110.632446 
z"/>
<path fill="#1D8F7B" opacity="1.000000" stroke="none" 
	d="
M162.289597,107.808434 
	C160.813354,104.515793 159.624863,101.035759 158.192505,96.896355 
	C157.700043,94.283432 157.451447,92.329872 157.033691,89.047096 
	C159.389709,90.720238 160.535049,91.533607 161.824326,92.670502 
	C163.041824,96.018532 164.115372,99.043045 165.188919,102.067558 
	C164.318390,103.918716 163.447876,105.769875 162.289597,107.808434 
z"/>
<path fill="#A6D5D4" opacity="1.000000" stroke="none" 
	d="
M165.415100,101.864655 
	C164.115372,99.043045 163.041824,96.018532 162.019897,92.338684 
	C164.083572,89.437859 166.095596,87.192375 168.107620,84.946892 
	C168.179459,86.080742 168.165863,87.228371 168.345840,88.344788 
	C168.547638,89.596565 168.924576,90.820122 169.606049,92.022476 
	C169.671280,92.983887 169.109970,93.981773 169.122025,94.972687 
	C169.130859,95.698196 169.892883,96.414551 170.649902,97.349487 
	C170.831512,97.853111 170.594299,98.000305 170.268951,98.005569 
	C168.726395,99.224297 167.183838,100.443024 165.415100,101.864655 
z"/>
<path fill="#19B799" opacity="1.000000" stroke="none" 
	d="
M170.150848,98.342194 
	C170.594299,98.000305 170.831512,97.853111 171.013306,97.348831 
	C171.045990,97.133675 171.105286,97.098892 171.353180,97.004227 
	C171.903992,96.713074 172.044205,96.434616 172.021729,96.074196 
	C176.171402,95.557640 180.321075,95.041092 184.918594,94.468788 
	C182.547119,99.369400 175.280594,102.684219 171.453308,101.038116 
	C170.768265,100.743484 170.495743,99.489723 170.150848,98.342194 
z"/>
<path fill="#412F25" opacity="1.000000" stroke="none" 
	d="
M219.082932,88.962578 
	C218.320282,87.721016 217.557617,86.479454 216.134140,84.162125 
	C218.878693,83.246071 221.718063,81.284592 223.786301,81.902832 
	C225.723083,82.481796 226.843033,85.793335 228.355652,87.754517 
	C225.286865,88.058662 222.184891,88.510620 219.082932,88.962578 
z"/>
<path fill="#E76440" opacity="1.000000" stroke="none" 
	d="
M44.927032,89.434990 
	C47.342644,89.065727 49.721561,89.093689 52.543297,89.160370 
	C50.975613,93.506645 47.765209,97.600716 51.009121,102.745163 
	C51.471661,103.478691 51.081169,104.750114 50.786572,105.868347 
	C48.621895,100.586800 46.756119,95.209503 44.927032,89.434990 
z"/>
<path fill="#19B799" opacity="1.000000" stroke="none" 
	d="
M106.177544,47.972363 
	C106.118683,48.140781 106.059830,48.309196 105.830971,48.987171 
	C104.803947,50.603249 103.946930,51.709759 102.945679,53.110573 
	C101.571022,54.257175 100.340607,55.109474 99.042458,55.666206 
	C98.691635,54.901852 98.408531,54.433060 98.125435,53.964272 
	C97.585854,48.634499 101.820717,46.192245 105.120689,42.730423 
	C105.644859,42.672791 105.834312,42.843414 106.037460,42.998837 
	C106.038597,43.455502 106.039734,43.912170 106.063278,45.066345 
	C106.116302,46.500023 106.146927,47.236191 106.177544,47.972363 
z"/>
<path fill="#DCE9E7" opacity="1.000000" stroke="none" 
	d="
M141.092651,48.352348 
	C136.027115,48.397961 131.000778,48.125717 125.604080,47.444946 
	C125.273766,46.803257 125.313789,46.570103 125.616257,46.189087 
	C126.927589,45.969604 127.976479,45.897980 129.025375,45.826355 
	C130.645264,45.171597 132.292145,44.575310 133.876831,43.844257 
	C135.231995,43.219093 136.515839,42.439358 137.831238,41.727989 
	C138.931442,43.830158 140.031647,45.932327 141.092651,48.352348 
z"/>
<path fill="#EDF1F0" opacity="1.000000" stroke="none" 
	d="
M167.904602,36.887589 
	C163.395142,41.715748 164.517365,33.586334 161.661057,34.533016 
	C161.956406,33.356201 161.976608,31.991894 162.617889,31.050797 
	C163.391205,29.915916 164.691650,29.140226 166.005280,27.999447 
	C168.611984,30.566582 170.983322,32.867744 167.904602,36.887589 
z"/>
<path fill="#F1B19E" opacity="1.000000" stroke="none" 
	d="
M219.144012,89.293350 
	C222.184891,88.510620 225.286865,88.058662 228.260010,87.993988 
	C227.881226,89.347206 227.631241,90.313133 227.292816,91.645691 
	C227.074875,92.945854 226.945389,93.879364 226.786331,95.026062 
	C225.791245,95.026062 224.771881,95.026062 223.408905,95.045944 
	C221.778534,93.251923 220.491821,91.438026 219.144012,89.293350 
z"/>
<path fill="#EDF1F0" opacity="1.000000" stroke="none" 
	d="
M209.535461,81.353462 
	C208.818878,82.546677 207.904266,83.367615 207.122894,84.300179 
	C206.448578,85.104950 205.925842,86.036720 204.557098,88.068977 
	C203.219284,84.855286 201.937332,82.711067 201.565643,80.419228 
	C201.418427,79.511597 203.801422,77.199188 204.163605,77.369881 
	C206.061020,78.264053 207.679718,79.749611 209.535461,81.353462 
z"/>
<path fill="#F0F7F7" opacity="1.000000" stroke="none" 
	d="
M97.755783,54.003693 
	C98.408531,54.433060 98.691635,54.901852 98.887939,55.999882 
	C97.889763,59.094803 96.978378,61.560482 96.003265,64.346741 
	C95.231934,65.809608 94.524323,66.951897 93.816711,68.094193 
	C92.772133,68.791809 91.727562,69.489426 90.361809,70.188690 
	C90.013512,67.481880 89.427887,64.821709 93.243851,63.600292 
	C95.649376,62.830334 94.993660,58.339844 92.609245,56.349342 
	C94.061600,55.425819 95.355537,54.784721 96.649467,54.143620 
	C96.895020,54.110119 97.140579,54.076618 97.755783,54.003693 
z"/>
<path fill="#4CB4AF" opacity="1.000000" stroke="none" 
	d="
M125.353813,46.336945 
	C125.313789,46.570103 125.273766,46.803257 125.185852,47.387642 
	C123.543343,48.571964 121.948723,49.405056 119.755379,50.561150 
	C115.508949,50.226910 114.620323,52.231987 115.124893,54.444992 
	C113.582901,53.870419 112.286903,53.387508 111.009155,52.578514 
	C111.004929,51.598190 110.982452,50.943954 111.181450,50.105782 
	C111.689873,49.673145 111.976807,49.424438 112.263748,49.175732 
	C114.587112,48.487709 116.910469,47.799686 120.005783,47.068787 
	C121.536919,46.897972 122.296104,46.770031 123.443802,46.657806 
	C124.339493,46.561329 124.846649,46.449135 125.353813,46.336945 
z"/>
<path fill="#EDF1F0" opacity="1.000000" stroke="none" 
	d="
M188.411713,59.582054 
	C189.006454,57.941669 189.535980,55.857910 190.605255,55.529064 
	C192.262283,55.019451 194.287445,55.706806 196.156525,55.886662 
	C195.985260,57.415775 196.353012,59.480339 195.503403,60.335621 
	C194.489487,61.356319 192.445389,61.579952 190.822235,61.664894 
	C190.109909,61.702171 189.334915,60.541748 188.411713,59.582054 
z"/>
<path fill="#E5EFEE" opacity="1.000000" stroke="none" 
	d="
M46.654739,70.897446 
	C46.321705,72.323090 46.006805,73.427368 45.452728,74.774170 
	C43.065292,74.152519 40.917042,73.288345 38.753735,72.418114 
	C40.651112,69.590645 42.003899,67.574722 44.448738,63.931427 
	C45.196243,65.478317 45.787468,66.701805 46.728493,67.971329 
	C46.943150,68.870270 46.808014,69.723167 46.654739,70.897446 
M44.487812,69.600266 
	C44.487812,69.600266 44.412857,69.478363 44.487812,69.600266 
z"/>
<path fill="#F1B19E" opacity="1.000000" stroke="none" 
	d="
M144.920120,120.885109 
	C147.145630,117.535835 149.675949,118.522804 152.586075,120.566986 
	C153.878555,121.644630 154.851608,122.523972 155.842865,123.750183 
	C153.716324,124.512794 151.571564,124.928528 148.936676,125.646431 
	C148.446564,125.948601 147.950836,125.939606 147.842682,125.659119 
	C147.143585,124.573212 146.552628,123.767792 145.935272,122.658356 
	C145.579300,121.864594 145.249710,121.374847 144.920120,120.885109 
z"/>
<path fill="#EDF1F0" opacity="1.000000" stroke="none" 
	d="
M115.576820,26.601414 
	C111.895424,25.862497 109.664185,24.203531 112.137726,20.611528 
	C112.776466,19.683969 114.852699,19.042765 115.976051,19.347710 
	C117.129913,19.660938 118.831673,21.455481 118.677917,22.311567 
	C118.409882,23.803930 116.902122,25.073633 115.576820,26.601414 
z"/>
<path fill="#EDF1F0" opacity="1.000000" stroke="none" 
	d="
M84.904030,30.493885 
	C85.742722,32.386456 86.496140,33.929020 87.249565,35.471584 
	C87.830597,35.077477 88.411629,34.683369 88.992653,34.289257 
	C87.447105,36.118809 85.901558,37.948360 84.327576,39.811573 
	C82.561989,37.825325 80.999817,36.067909 79.235909,34.083542 
	C81.095825,32.771049 82.957291,31.457462 84.904030,30.493885 
z"/>
<path fill="#F0F7F7" opacity="1.000000" stroke="none" 
	d="
M77.179131,63.036125 
	C76.461235,63.094170 75.743340,63.152210 74.665527,63.272377 
	C74.201004,61.561962 74.096397,59.789421 73.958488,57.452515 
	C77.999374,58.578976 82.193962,54.258163 85.485008,58.898491 
	C83.961319,59.428768 82.519661,59.930492 80.719025,60.806618 
	C79.299736,61.799385 78.239433,62.417759 77.179131,63.036125 
z"/>
<path fill="#CCC2B5" opacity="1.000000" stroke="none" 
	d="
M236.697845,152.907303 
	C238.488037,156.542023 240.455994,155.797516 242.881592,152.994064 
	C243.629990,152.934204 243.998260,153.023163 244.616791,153.258575 
	C245.342514,156.550369 244.129608,158.149200 240.809601,158.013992 
	C238.503510,157.920074 236.190536,157.995926 232.966232,157.995926 
	C233.696960,156.131042 234.220932,154.793854 235.168930,153.192139 
	C235.961258,152.920837 236.329559,152.914062 236.697845,152.907303 
z"/>
<path fill="#F1B19E" opacity="1.000000" stroke="none" 
	d="
M55.392746,64.140938 
	C54.145958,63.578224 53.238972,62.912220 52.157173,61.949280 
	C52.057377,60.567417 52.132389,59.482483 52.504280,58.259949 
	C53.102512,58.447277 53.582680,59.099365 53.677975,59.047283 
	C54.818321,58.424011 55.901539,57.696209 57.274323,57.085842 
	C57.932396,57.178982 58.315842,57.182022 58.945961,57.354424 
	C59.795383,57.977352 60.398129,58.430923 61.000877,58.884499 
	C59.244766,60.602215 57.488655,62.319931 55.392746,64.140938 
z"/>
<path fill="#189B90" opacity="1.000000" stroke="none" 
	d="
M96.414032,53.932262 
	C95.355537,54.784721 94.061600,55.425819 92.377808,56.121536 
	C90.954796,55.530830 89.921646,54.885506 88.526100,53.673656 
	C89.437218,52.037403 90.710724,50.967678 91.984230,49.897949 
	C93.382355,51.172268 94.780479,52.446587 96.414032,53.932262 
z"/>
<path fill="#F8EDE1" opacity="1.000000" stroke="none" 
	d="
M88.061371,69.613251 
	C84.958244,69.307076 81.895668,68.656845 78.502441,67.780312 
	C78.422333,67.141769 78.672874,66.729530 79.264923,66.325089 
	C82.996910,67.741386 83.517563,65.338715 84.066879,62.974125 
	C87.546349,63.704327 89.641586,65.321800 88.061371,69.613251 
z"/>
<path fill="#3D261A" opacity="1.000000" stroke="none" 
	d="
M58.699287,57.185066 
	C58.315842,57.182022 57.932396,57.178982 57.061050,56.839539 
	C55.136230,56.652817 53.699322,56.802486 52.262405,56.952160 
	C53.466419,54.940632 54.670433,52.929108 55.874451,50.917583 
	C57.022579,52.206085 58.170708,53.494587 59.632233,55.255447 
	C59.530186,56.213558 59.114735,56.699314 58.699287,57.185066 
z"/>
<path fill="#F1B19E" opacity="1.000000" stroke="none" 
	d="
M83.853073,62.760437 
	C83.517563,65.338715 82.996910,67.741386 79.007736,66.243652 
	C78.058647,66.073288 77.708237,65.992165 77.357826,65.911041 
	C77.332695,65.189659 77.307564,64.468277 77.230782,63.391510 
	C78.239433,62.417759 79.299736,61.799385 80.669540,61.147995 
	C81.865791,61.592236 82.752533,62.069492 83.853073,62.760437 
z"/>
<path fill="#3F9B96" opacity="1.000000" stroke="none" 
	d="
M55.348640,124.957687 
	C55.666374,126.492882 55.629944,128.102081 55.270859,129.964844 
	C52.262436,130.032227 49.117588,130.328644 50.573235,125.554413 
	C52.136082,125.130157 53.565281,125.080925 55.348640,124.957687 
z"/>
<path fill="#F9FCFB" opacity="1.000000" stroke="none" 
	d="
M125.616257,46.189083 
	C124.846649,46.449135 124.339493,46.561329 123.436584,46.477432 
	C123.040833,46.281345 122.999626,45.922043 122.999626,45.922043 
	C120.214226,43.415920 124.501808,43.916183 124.427620,42.562466 
	C125.947319,43.413708 127.467010,44.264950 129.006042,45.471275 
	C127.976479,45.897980 126.927589,45.969604 125.616257,46.189083 
z"/>
<path fill="#4D3824" opacity="1.000000" stroke="none" 
	d="
M58.945961,57.354424 
	C59.114735,56.699314 59.530186,56.213558 59.979881,55.395508 
	C61.140167,55.016869 62.266197,54.970528 63.392231,54.924191 
	C62.791672,56.230701 62.191113,57.537212 61.295715,58.864109 
	C60.398129,58.430923 59.795383,57.977352 58.945961,57.354424 
z"/>
<path fill="#E76440" opacity="1.000000" stroke="none" 
	d="
M50.389194,112.433495 
	C50.993015,114.575218 51.397003,117.141312 52.052921,119.641296 
	C52.326538,120.684166 53.136192,121.586395 54.286041,123.549484 
	C53.292507,123.142830 52.087727,122.649712 50.742218,121.769348 
	C50.498005,118.531799 50.394524,115.681488 50.389194,112.433495 
z"/>
<path fill="#F5F9FA" opacity="1.000000" stroke="none" 
	d="
M111.979645,48.995735 
	C111.976807,49.424438 111.689873,49.673145 110.852669,50.191154 
	C107.898239,51.245731 105.494072,52.031002 103.089905,52.816273 
	C103.946930,51.709759 104.803947,50.603249 105.864151,49.252708 
	C107.054932,48.817738 108.037704,48.512012 109.031570,48.470181 
	C109.913155,48.433071 110.807068,48.689102 111.979645,48.995735 
z"/>
<path fill="#F0F7F7" opacity="1.000000" stroke="none" 
	d="
M91.707237,49.634773 
	C90.710724,50.967678 89.437218,52.037403 88.292091,53.470192 
	C87.210815,52.705196 86.001160,51.577133 84.791504,50.449074 
	C85.022186,50.089916 85.252869,49.730759 85.483551,49.371601 
	C87.465782,49.371601 89.448013,49.371601 91.707237,49.634773 
z"/>
<path fill="#F5F9FA" opacity="1.000000" stroke="none" 
	d="
M175.445099,72.703560 
	C173.951370,73.057045 172.690369,73.152802 170.784698,73.196701 
	C169.932220,72.770966 169.457230,72.264000 169.565140,72.047394 
	C169.932587,71.309769 170.505524,70.674500 171.000000,70.000076 
	C171.000000,70.000000 171.000443,69.999695 171.000443,69.999695 
	C172.654633,70.633293 175.868912,68.283745 175.445099,72.703560 
z"/>
<path fill="#F5F9FA" opacity="1.000000" stroke="none" 
	d="
M165.996429,67.996727 
	C167.486816,64.802605 169.756973,66.575211 171.788422,67.187645 
	C171.834930,67.201675 171.447464,68.655289 171.131439,69.718552 
	C171.000443,69.999695 171.000000,70.000000 170.689896,69.847580 
	C168.920929,69.131226 167.462067,68.567291 166.001602,68.001740 
	C166.000000,68.000114 165.996429,67.996727 165.996429,67.996727 
z"/>
<path fill="#4D3824" opacity="1.000000" stroke="none" 
	d="
M52.277145,57.178902 
	C53.699322,56.802486 55.136230,56.652817 56.786419,56.749443 
	C55.901539,57.696209 54.818321,58.424011 53.677975,59.047283 
	C53.582680,59.099365 53.102512,58.447277 52.604919,57.983589 
	C52.408680,57.844826 52.291878,57.405647 52.277145,57.178902 
z"/>
<path fill="#F5F9FA" opacity="1.000000" stroke="none" 
	d="
M106.337822,42.866333 
	C105.834312,42.843414 105.644859,42.672791 105.281830,42.452553 
	C106.817688,41.884052 108.540817,41.349968 110.263954,40.815884 
	C110.367508,41.305878 110.471054,41.795872 110.574608,42.285862 
	C109.262466,42.435184 107.950325,42.584507 106.337822,42.866333 
z"/>
<path fill="#F5F9FA" opacity="1.000000" stroke="none" 
	d="
M164.890503,70.052155 
	C164.591400,69.569710 164.292297,69.087265 163.981735,68.309952 
	C164.420578,68.010284 164.870880,68.005463 165.658813,67.998688 
	C165.996429,67.996727 166.000000,68.000114 165.974655,68.312080 
	C165.596375,69.100082 165.243439,69.576118 164.890503,70.052155 
z"/>
<path fill="#F0F7F7" opacity="1.000000" stroke="none" 
	d="
M84.002296,53.997036 
	C84.435379,54.391945 84.868454,54.786858 85.301537,55.181770 
	C85.121361,55.326740 84.941193,55.471714 84.761024,55.616684 
	C84.523224,55.258675 84.285431,54.900661 84.023819,54.271324 
	C84.000000,54.000000 84.002296,53.997036 84.002296,53.997036 
z"/>
<path fill="#F0F7F7" opacity="1.000000" stroke="none" 
	d="
M89.135155,60.698685 
	C88.945839,60.391850 88.971947,60.053085 88.998047,59.714317 
	C89.234100,59.785526 89.470161,59.856735 89.706215,59.927944 
	C89.587669,60.174217 89.469124,60.420486 89.135155,60.698685 
z"/>
<path fill="#DCE9E7" opacity="1.000000" stroke="none" 
	d="
M122.665146,45.951523 
	C122.999626,45.922043 123.040833,46.281345 123.048058,46.461716 
	C122.296104,46.770031 121.536919,46.897972 120.391701,46.994301 
	C120.780663,46.635464 121.555664,46.308231 122.665146,45.951523 
z"/>
<path fill="#F5F9FA" opacity="1.000000" stroke="none" 
	d="
M106.393860,47.781204 
	C106.146927,47.236191 106.116302,46.500023 106.144516,45.399765 
	C106.338951,45.887131 106.474564,46.738590 106.393860,47.781204 
z"/>
<path fill="#F0F7F7" opacity="1.000000" stroke="none" 
	d="
M72.737175,64.011292 
	C72.863251,64.250397 72.714859,64.462692 72.265701,64.569397 
	C72.174034,64.313499 72.339958,64.153725 72.737175,64.011292 
z"/>
<path fill="#E7EFEE" opacity="1.000000" stroke="none" 
	d="
M224.162949,160.867523 
	C224.065994,160.624741 224.280090,160.392242 224.806213,160.174011 
	C224.903625,160.419296 224.688858,160.649139 224.162949,160.867523 
z"/>
<path fill="#A6D5D4" opacity="1.000000" stroke="none" 
	d="
M171.808151,96.167664 
	C172.044205,96.434616 171.903992,96.713074 171.366669,96.972603 
	C171.156509,96.699944 171.310623,96.441772 171.808151,96.167664 
z"/>
<path fill="#F9FCFB" opacity="1.000000" stroke="none" 
	d="
M121.450043,41.532558 
	C121.416862,41.477032 121.483215,41.588085 121.450043,41.532558 
z"/>
<path fill="#F0F7F7" opacity="1.000000" stroke="none" 
	d="
M74.012947,63.264015 
	C74.018585,63.486115 73.760094,63.694862 73.238800,63.915871 
	C73.233604,63.702309 73.491203,63.476490 74.012947,63.264015 
z"/>
<path fill="#7BB7B7" opacity="1.000000" stroke="none" 
	d="
M153.065399,55.664860 
	C152.796783,55.735229 152.512878,55.513191 152.155350,55.025383 
	C152.404510,54.963890 152.727325,55.168171 153.065399,55.664860 
z"/>
<path fill="#F0F7F7" opacity="1.000000" stroke="none" 
	d="
M83.998482,54.001171 
	C83.874458,53.857132 83.751961,53.711922 83.629456,53.566708 
	C83.717392,53.616257 83.805321,53.665802 83.947777,53.856194 
	C84.002296,53.997036 84.000000,54.000000 83.998482,54.001171 
z"/>
<path fill="#C6D7D6" opacity="1.000000" stroke="none" 
	d="
M51.553757,153.990295 
	C52.440479,153.992325 52.895504,153.993500 54.110268,153.974976 
	C57.816349,153.641617 60.768139,153.019058 63.708054,153.070801 
	C73.463539,153.242569 83.214745,153.657013 93.236053,154.162018 
	C95.203087,155.786682 96.799599,158.160355 99.007378,154.947815 
	C100.186729,155.140747 101.366089,155.333694 102.545441,155.526627 
	C102.517540,156.144592 102.489632,156.762573 102.461731,157.380539 
	C82.090454,160.195877 61.683430,159.449875 41.266941,157.761703 
	C41.183754,156.995468 41.100567,156.229233 41.017376,155.462997 
	C44.385605,154.971817 47.753830,154.480637 51.553757,153.990295 
z"/>
<path fill="#F6B05A" opacity="1.000000" stroke="none" 
	d="
M184.621704,142.955521 
	C185.594101,143.218185 186.284317,143.968689 186.906525,143.916031 
	C188.390305,143.790421 189.842010,143.285721 192.042755,142.960419 
	C194.794983,142.380112 197.085037,142.186676 198.765106,141.072998 
	C201.493607,139.264328 205.118118,137.519852 203.024872,132.626572 
	C203.027817,131.499252 203.036072,130.747726 203.357788,129.972473 
	C204.445450,129.632690 205.219666,129.316650 205.995224,129.375458 
	C205.997696,130.500000 205.998856,131.249695 205.897797,132.268707 
	C206.472778,133.355392 207.149963,134.172775 207.726776,135.317474 
	C204.894592,141.071564 202.162781,146.498322 199.430969,151.925079 
	C197.514084,152.197021 195.597183,152.468964 193.263855,152.363266 
	C191.816208,148.268967 189.503937,147.568832 186.214828,149.168854 
	C184.117004,147.596359 182.009277,146.026947 184.621704,142.955521 
z"/>
<path fill="#C6D6D4" opacity="1.000000" stroke="none" 
	d="
M124.183182,154.235931 
	C123.337242,153.921310 122.491310,153.606705 121.335236,153.154358 
	C117.382790,152.352142 113.759811,151.538788 110.093025,151.063004 
	C106.034660,150.536423 101.936211,150.318710 97.432755,149.721863 
	C97.010292,149.477264 97.010620,149.030487 97.265366,148.733368 
	C101.259987,147.952301 105.001114,147.477737 108.739487,146.982452 
	C116.152702,146.000305 123.564407,145.006775 131.019958,144.247116 
	C131.063171,144.476288 131.125366,144.938522 131.161102,145.121521 
	C131.447113,145.208084 131.697403,145.111664 132.299713,144.989838 
	C133.122238,144.964066 133.592743,144.963699 134.038818,145.270020 
	C133.992157,145.780609 133.969940,145.984528 133.860397,146.357635 
	C133.596848,147.276840 133.420609,148.026840 132.852341,148.767532 
	C130.094528,150.220337 127.728767,151.682434 125.071617,153.208557 
	C124.562798,153.590012 124.345360,153.907455 124.146309,154.202209 
	C124.164696,154.179504 124.183182,154.235931 124.183182,154.235931 
z"/>
<path fill="#CCDFDF" opacity="1.000000" stroke="none" 
	d="
M97.010620,149.030487 
	C97.010620,149.030487 97.010292,149.477264 97.004913,149.699677 
	C97.525810,151.411133 98.052086,152.900192 98.792877,154.668518 
	C96.799599,158.160355 95.203087,155.786682 93.250702,153.725082 
	C92.657516,150.401611 92.318130,147.698746 91.981880,144.574844 
	C91.729446,142.529739 91.539879,140.892014 91.207283,139.283859 
	C89.469040,130.879227 87.694481,122.482094 86.230408,114.045937 
	C86.924072,113.987801 87.319893,113.966087 88.047470,114.154831 
	C90.590118,123.906738 92.800995,133.448196 95.044846,143.356552 
	C95.722092,145.492462 96.366356,147.261475 97.010620,149.030487 
z"/>
<path fill="#76837E" opacity="1.000000" stroke="none" 
	d="
M186.124084,149.490936 
	C189.503937,147.568832 191.816208,148.268967 192.884811,152.302612 
	C191.760727,155.656754 189.850693,156.909744 186.396759,155.050354 
	C186.067627,153.187073 186.050491,151.500046 186.124084,149.490936 
z"/>
<path fill="#CCDFDF" opacity="1.000000" stroke="none" 
	d="
M129.622681,160.100677 
	C131.610809,160.553207 133.193512,160.947998 134.776215,161.342804 
	C134.788086,161.605743 134.799973,161.868698 134.811844,162.131653 
	C130.571472,162.131653 126.331085,162.131653 122.090714,162.131653 
	C122.052536,161.733551 122.014366,161.335449 121.976196,160.937332 
	C124.389877,160.639206 126.803558,160.341064 129.622681,160.100677 
z"/>
<path fill="#17B6B3" opacity="1.000000" stroke="none" 
	d="
M113.944679,69.997780 
	C117.017822,71.172806 119.051445,75.409790 123.375778,73.217461 
	C123.547104,73.130608 125.109077,74.915672 125.304947,75.962860 
	C125.565933,77.358162 125.122101,78.885292 124.661865,80.741547 
	C123.211861,81.128517 122.081017,81.129730 120.966797,80.720360 
	C120.872871,79.040428 120.762314,77.771088 120.610764,76.030975 
	C117.864998,76.937454 115.576584,77.692947 112.407921,78.739044 
	C115.820435,79.774948 117.975853,80.429253 119.913986,81.345634 
	C118.406113,82.585930 116.659348,83.298279 115.906586,84.589928 
	C113.143974,89.330215 115.249847,98.565842 120.621292,101.894714 
	C125.107033,104.674698 126.782104,107.903297 126.001038,112.906784 
	C125.989761,112.996292 125.966515,113.174606 125.541519,113.126724 
	C116.447594,112.664238 107.778679,112.249634 99.036949,111.491394 
	C92.789360,101.265144 90.483711,90.656952 92.987694,79.155952 
	C93.457848,76.996513 93.991020,74.850807 94.495117,72.698761 
	C94.495117,72.698761 94.657631,72.622887 95.060608,72.754883 
	C95.686226,72.902168 95.908867,72.917442 96.131516,72.932716 
	C96.131516,72.932716 96.040596,72.912079 96.050652,73.260071 
	C97.152481,77.983086 98.459091,81.802040 104.389740,81.417297 
	C106.177650,81.301308 108.100151,83.373314 109.973808,84.420113 
	C110.991135,84.988472 112.035385,85.508621 113.067497,86.050522 
	C113.500427,85.514191 113.933350,84.977867 114.366280,84.441544 
	C110.591064,80.320480 106.815849,76.199425 102.434326,71.416512 
	C106.871506,70.869598 110.408089,70.433685 113.944679,69.997780 
z"/>
<path fill="#077875" opacity="1.000000" stroke="none" 
	d="
M120.950165,81.130943 
	C122.081017,81.129730 123.211861,81.128517 124.649689,81.145439 
	C126.084938,81.388489 127.213196,81.613396 128.926697,81.864105 
	C129.511948,81.889900 129.974854,81.894096 129.974854,81.894096 
	C132.110809,82.395340 134.244003,82.908928 136.384460,83.390152 
	C137.009567,83.530693 138.075806,83.378113 138.229416,83.699478 
	C141.052811,89.606171 147.931061,87.358360 152.184326,91.281189 
	C150.529404,95.923820 148.713867,99.921043 146.898315,103.918274 
	C146.898315,103.918266 146.949020,104.005997 146.702759,104.048653 
	C146.300812,104.383957 146.145142,104.676613 145.989471,104.969261 
	C145.335556,105.436089 144.681625,105.902908 143.675049,106.749008 
	C142.893814,107.443909 142.465240,107.759521 141.660461,108.079971 
	C136.193604,109.662300 131.102966,111.239784 126.012314,112.817276 
	C126.782104,107.903297 125.107033,104.674698 120.621292,101.894714 
	C115.249847,98.565842 113.143974,89.330215 115.906586,84.589928 
	C116.659348,83.298279 118.406113,82.585930 120.118454,81.351944 
	C120.540222,81.096161 120.950165,81.130943 120.950165,81.130943 
z"/>
<path fill="#097C77" opacity="1.000000" stroke="none" 
	d="
M113.942932,69.619202 
	C110.408089,70.433685 106.871506,70.869598 102.434326,71.416512 
	C106.815849,76.199425 110.591064,80.320480 114.366280,84.441544 
	C113.933350,84.977867 113.500427,85.514191 113.067497,86.050522 
	C112.035385,85.508621 110.991135,84.988472 109.973808,84.420113 
	C108.100151,83.373314 106.177650,81.301308 104.389740,81.417297 
	C98.459091,81.802040 97.152481,77.983086 96.071838,73.218552 
	C96.682625,72.524178 97.282265,72.219307 97.881905,71.914429 
	C96.662827,70.830658 95.443741,69.746887 94.020691,68.378647 
	C94.524323,66.951897 95.231934,65.809608 96.400932,64.325546 
	C103.662956,62.957371 106.638306,57.052826 110.990906,52.904598 
	C112.286903,53.387508 113.582901,53.870419 115.124893,54.444992 
	C114.620323,52.231987 115.508949,50.226910 119.558182,50.850311 
	C123.386314,51.061943 126.840408,51.250290 128.090195,53.570217 
	C123.049667,59.152733 118.495422,64.196678 113.942932,69.619202 
M124.667366,55.509010 
	C124.667366,55.509010 124.447754,55.399597 124.447754,55.399597 
	C124.447754,55.399597 124.488762,55.619511 124.667366,55.509010 
z"/>
<path fill="#7CCCCB" opacity="1.000000" stroke="none" 
	d="
M147.259766,103.919144 
	C148.713867,99.921043 150.529404,95.923820 152.470551,91.562012 
	C153.781662,85.424202 154.967163,79.650986 156.222916,73.435364 
	C157.213776,73.820190 158.327377,74.512444 159.018250,75.500336 
	C160.970261,78.291466 162.905365,80.932419 167.239014,80.016312 
	C167.708572,81.385406 167.871353,82.753647 168.070877,84.534393 
	C166.095596,87.192375 164.083572,89.437859 161.875961,92.015160 
	C160.535049,91.533607 159.389709,90.720238 157.033691,89.047096 
	C157.451447,92.329872 157.700043,94.283432 157.981720,96.621063 
	C154.550278,99.310089 151.085739,101.615051 147.259766,103.919144 
z"/>
<path fill="#17B6B3" opacity="1.000000" stroke="none" 
	d="
M129.900879,81.752396 
	C129.974854,81.894096 129.511948,81.889900 129.291718,81.820236 
	C129.289368,81.418777 129.541168,81.372154 129.900879,81.752396 
z"/>
<path fill="#ED704A" opacity="1.000000" stroke="none" 
	d="
M151.982468,133.994278 
	C152.199921,134.894394 152.417374,135.794525 152.829926,136.861450 
	C153.636902,139.144165 154.248810,141.260056 154.637619,143.775024 
	C154.267395,144.481628 154.120270,144.789169 153.578583,145.154434 
	C149.754700,146.786026 146.325378,148.359909 142.896042,149.933777 
	C141.853012,149.937302 140.809982,149.940811 139.121414,149.756424 
	C137.672150,148.048477 136.868423,146.528458 136.085312,144.686859 
	C136.740234,143.249588 137.374527,142.133881 138.284851,140.868713 
	C139.420441,139.825500 140.279984,138.931717 141.504517,138.023132 
	C143.883179,137.978134 145.896866,137.947968 148.095337,137.867767 
	C148.357117,137.718002 148.517532,137.554596 148.497803,137.528748 
	C148.352493,137.338425 148.171188,137.175583 147.767761,136.836136 
	C149.017029,135.776886 150.499756,134.885590 151.982468,133.994278 
M143.263702,140.999451 
	C142.090302,141.341507 140.916885,141.683548 139.743484,142.025589 
	C140.163086,142.349487 140.582687,142.673386 141.029297,143.496826 
	C144.166473,143.927780 144.640762,143.527924 143.263702,140.999451 
z"/>
<path fill="#21A79A" opacity="1.000000" stroke="none" 
	d="
M164.943268,148.986557 
	C164.943268,148.986557 165.050140,149.437164 164.887405,149.834793 
	C167.041351,154.054047 166.579102,154.800201 162.060776,155.026230 
	C159.052551,155.176743 156.056747,155.576019 153.055389,155.863968 
	C152.253693,155.839737 151.451981,155.815506 150.221130,155.352631 
	C150.197418,152.611435 150.602859,150.308884 151.433777,148.007599 
	C156.220581,148.334747 160.581924,148.660645 164.943268,148.986557 
z"/>
<path fill="#15706D" opacity="1.000000" stroke="none" 
	d="
M151.008301,148.006348 
	C150.602859,150.308884 150.197418,152.611435 149.832306,155.253967 
	C146.106796,156.037033 143.230316,155.236221 142.960907,150.316116 
	C146.325378,148.359909 149.754700,146.786026 153.403320,145.396484 
	C152.751160,146.389328 151.879730,147.197830 151.008301,148.006348 
z"/>
<path fill="#189B90" opacity="1.000000" stroke="none" 
	d="
M151.433777,148.007599 
	C151.879730,147.197830 152.751160,146.389328 153.797882,145.338776 
	C154.120270,144.789169 154.267395,144.481628 154.676910,144.145508 
	C157.992584,144.125870 161.045883,144.134781 164.494293,144.130585 
	C165.014191,145.553696 165.138977,146.989914 165.103516,148.706329 
	C160.581924,148.660645 156.220581,148.334747 151.433777,148.007599 
z"/>
<path fill="#4D3824" opacity="1.000000" stroke="none" 
	d="
M125.362991,153.144531 
	C127.728767,151.682434 130.094528,150.220337 132.826248,149.120377 
	C133.145157,149.952072 133.098114,150.421631 133.151611,151.234802 
	C133.500702,152.728897 133.749283,153.879364 133.997864,155.029831 
	C130.702332,155.040329 127.406792,155.050827 124.147217,154.648621 
	C124.183182,154.235931 124.164696,154.179504 124.429337,154.126099 
	C124.916985,153.763321 125.139984,153.453918 125.362991,153.144531 
z"/>
<path fill="#F3734D" opacity="1.000000" stroke="none" 
	d="
M173.011658,155.673584 
	C171.529480,154.507767 170.435364,153.327621 169.341263,152.147461 
	C170.806976,151.810547 172.272705,151.473633 173.738419,151.136719 
	C173.625534,152.644226 173.512634,154.151733 173.011658,155.673584 
z"/>
<path fill="#3D261A" opacity="1.000000" stroke="none" 
	d="
M134.436462,155.115265 
	C133.749283,153.879364 133.500702,152.728897 133.560532,151.267822 
	C135.486496,150.918823 137.104080,150.880432 138.721649,150.842010 
	C140.125549,151.357803 141.529434,151.873596 142.933319,152.389389 
	C142.358154,153.233673 141.783005,154.077972 141.207840,154.922256 
	C139.096924,155.015076 136.985992,155.107895 134.436462,155.115265 
z"/>
<path fill="#19B799" opacity="1.000000" stroke="none" 
	d="
M153.507004,155.974854 
	C156.056747,155.576019 159.052551,155.176743 162.060776,155.026230 
	C166.579102,154.800201 167.041351,154.054047 164.938599,150.060623 
	C169.749115,150.091370 167.858719,153.194016 167.961472,156.085724 
	C163.108673,156.085724 158.533646,156.085724 153.507004,155.974854 
z"/>
<path fill="#ED8363" opacity="1.000000" stroke="none" 
	d="
M138.791321,150.627625 
	C137.104080,150.880432 135.486496,150.918823 133.459991,150.924194 
	C133.098114,150.421631 133.145157,149.952072 133.218292,149.129684 
	C133.420609,148.026840 133.596848,147.276840 134.139877,146.283844 
	C134.689316,145.714996 134.871933,145.389160 135.035767,145.032288 
	C135.016983,145.001221 135.063766,145.063293 135.314819,145.064423 
	C135.732147,145.046524 135.898422,145.027481 136.064682,145.008438 
	C136.868423,146.528458 137.672150,148.048477 138.729919,149.773972 
	C138.983978,149.979431 138.860977,150.413223 138.791321,150.627625 
z"/>
<path fill="#15706D" opacity="1.000000" stroke="none" 
	d="
M223.215424,119.321068 
	C227.196838,119.523483 231.178253,119.725891 235.558426,119.911346 
	C238.686584,125.192238 232.522293,125.907890 231.180176,129.113937 
	C230.946396,129.672379 230.394745,130.097748 229.578247,130.930511 
	C227.743164,132.715530 225.729050,133.908722 225.008286,135.640259 
	C222.934113,140.623154 221.382416,145.823532 219.625443,150.938446 
	C219.278030,151.611771 218.930634,152.285095 218.000885,153.116638 
	C215.732056,152.812393 214.045624,152.349945 212.359177,151.887497 
	C212.359177,151.887497 212.173416,151.783539 212.160339,151.481842 
	C215.836655,140.560455 219.526047,129.940765 223.215424,119.321068 
z"/>
<path fill="#F7F8F5" opacity="1.000000" stroke="none" 
	d="
M223.168869,118.977554 
	C219.526047,129.940765 215.836655,140.560455 212.084610,151.556641 
	C208.163406,151.939575 204.304855,151.946030 199.938629,151.938782 
	C202.162781,146.498322 204.894592,141.071564 207.919586,135.038208 
	C209.187241,132.727402 210.161713,131.023193 211.136169,129.318985 
	C212.178268,127.540085 213.220367,125.761177 214.657440,123.589104 
	C215.632126,122.534309 216.211823,121.872681 216.791534,121.211060 
	C217.098450,120.052086 217.405365,118.893105 217.899933,117.424240 
	C219.526382,116.197327 220.965195,115.280304 222.719589,114.292068 
	C223.064240,115.691917 223.093277,117.162979 223.168869,118.977554 
z"/>
<path fill="#F5F9FA" opacity="1.000000" stroke="none" 
	d="
M220.077545,150.960297 
	C221.382416,145.823532 222.934113,140.623154 225.008286,135.640259 
	C225.729050,133.908722 227.743164,132.715530 229.504395,131.299469 
	C232.105286,138.279129 234.368347,145.235809 236.664642,152.549896 
	C236.329559,152.914062 235.961258,152.920837 235.317123,152.936920 
	C230.204056,152.291550 225.366837,151.636826 220.077545,150.960297 
z"/>
<path fill="#ED8363" opacity="1.000000" stroke="none" 
	d="
M212.131454,152.179932 
	C214.045624,152.349945 215.732056,152.812393 217.809174,153.337402 
	C216.994278,157.508514 213.082230,158.216583 206.911789,154.878876 
	C208.879761,153.930161 210.391754,153.201279 212.131454,152.179932 
z"/>
<path fill="#F7B455" opacity="1.000000" stroke="none" 
	d="
M203.030182,133.002380 
	C205.118118,137.519852 201.493607,139.264328 198.765106,141.072998 
	C197.085037,142.186676 194.794983,142.380112 192.388489,142.993057 
	C193.179001,139.887924 194.357529,136.775574 195.557846,133.671661 
	C195.581024,133.611725 195.864807,133.626602 196.020020,133.650955 
	C196.177261,133.675598 196.325851,133.755402 197.093842,133.938202 
	C199.483017,133.711029 201.256592,133.356705 203.030182,133.002380 
z"/>
<path fill="#F0B962" opacity="1.000000" stroke="none" 
	d="
M203.024872,132.626556 
	C201.256592,133.356705 199.483017,133.711029 197.356537,134.030411 
	C196.562408,132.173569 196.121155,130.351654 195.443115,127.552139 
	C197.172043,127.084732 199.190094,126.539169 201.748138,126.313721 
	C202.540207,127.754623 202.792267,128.875427 203.044342,129.996216 
	C203.036072,130.747726 203.027817,131.499252 203.024872,132.626556 
M199.330597,132.315308 
	C200.506958,131.897659 201.683304,131.480026 202.859665,131.062378 
	C201.904739,130.324142 200.949799,129.585892 199.994858,128.847656 
	C199.579269,129.913635 199.163681,130.979599 199.330597,132.315308 
z"/>
<path fill="#F7B455" opacity="1.000000" stroke="none" 
	d="
M211.078522,128.992889 
	C210.161713,131.023193 209.187241,132.727402 208.019958,134.710876 
	C207.149963,134.172775 206.472778,133.355392 206.282166,132.185150 
	C207.178772,129.222031 207.588776,126.611778 207.999390,124.000763 
	C208.000000,124.000000 208.001221,123.998474 208.001221,123.998474 
	C209.007767,125.554581 210.014313,127.110680 211.078522,128.992889 
z"/>
<path fill="#F7B455" opacity="1.000000" stroke="none" 
	d="
M203.357788,129.972473 
	C202.792267,128.875427 202.540207,127.754623 202.151138,126.311920 
	C205.113022,120.943596 205.457306,120.789406 207.966888,123.668884 
	C208.001221,123.998474 208.000000,124.000000 207.632172,124.007416 
	C202.929153,124.680016 206.445068,127.345741 205.993896,129.000610 
	C205.219666,129.316650 204.445450,129.632690 203.357788,129.972473 
z"/>
<path fill="#A5A9A0" opacity="1.000000" stroke="none" 
	d="
M216.434082,121.155380 
	C216.211823,121.872681 215.632126,122.534309 214.748596,123.251785 
	C211.347137,121.445396 208.249481,119.583153 205.065414,117.385361 
	C208.678207,118.399780 212.377411,119.749733 216.434082,121.155380 
z"/>
<path fill="#A5A9A0" opacity="1.000000" stroke="none" 
	d="
M198.077057,114.328888 
	C200.131088,114.839745 202.397461,115.637657 204.814728,116.735878 
	C202.740204,116.229439 200.514786,115.422699 198.077057,114.328888 
z"/>
<path fill="#CCD9D6" opacity="1.000000" stroke="none" 
	d="
M59.994247,120.999039 
	C58.920319,121.546394 57.846386,122.093742 56.507759,122.798615 
	C56.196861,122.550797 56.150661,122.145462 56.381836,121.220856 
	C57.458611,118.432236 58.582188,116.220345 58.996384,113.882759 
	C60.219334,106.980789 61.161663,100.029106 62.444981,93.255013 
	C63.048126,93.599274 63.418987,93.787888 63.799515,93.954399 
	C63.807503,93.957901 63.961388,93.712959 63.989883,93.572311 
	C64.962021,88.773613 65.927208,83.973511 67.237823,79.106865 
	C68.049065,79.021851 68.515862,79.003571 68.986237,79.405090 
	C67.858154,85.774460 66.630547,91.707893 65.626534,97.678932 
	C64.880844,102.113701 64.425240,106.597252 63.599037,110.955215 
	C62.923374,111.929008 62.489105,113.006653 61.978832,114.455750 
	C61.542427,116.561317 61.182030,118.295433 60.635796,120.142624 
	C60.224312,120.455605 60.074413,120.701706 60.000328,120.996971 
	C60.000393,120.999954 59.994247,120.999039 59.994247,120.999039 
z"/>
<path fill="#D5543A" opacity="1.000000" stroke="none" 
	d="
M62.213787,93.096870 
	C61.161663,100.029106 60.219334,106.980789 58.996384,113.882759 
	C58.582188,116.220345 57.458611,118.432236 56.359985,120.914688 
	C56.637756,115.811310 57.737141,110.485847 57.645977,105.180840 
	C57.553360,99.791389 56.286564,94.422112 55.127514,88.927979 
	C55.875107,88.220612 57.029156,87.629272 58.683853,87.218491 
	C60.194263,89.298332 61.204025,91.197601 62.213787,93.096870 
z"/>
<path fill="#148E88" opacity="1.000000" stroke="none" 
	d="
M57.829811,82.014473 
	C55.863880,82.198235 53.893349,82.343529 51.933498,82.578102 
	C50.403671,82.761215 47.801125,83.641518 47.559837,83.194588 
	C46.691868,81.586861 46.488052,79.560478 46.309624,77.666267 
	C46.222240,76.738670 46.743084,75.753777 47.001545,74.391281 
	C50.170685,73.477402 53.326927,72.967056 56.886101,73.050545 
	C57.553249,75.509651 57.817463,77.374924 58.060005,79.588333 
	C57.968830,80.629135 57.899323,81.321800 57.829811,82.014473 
z"/>
<path fill="#E5EFEE" opacity="1.000000" stroke="none" 
	d="
M77.185745,66.241928 
	C77.708237,65.992165 78.058647,66.073288 78.666237,66.235847 
	C78.672874,66.729530 78.422333,67.141769 78.085846,67.782959 
	C77.052094,70.141434 76.104294,72.270950 74.617538,74.672256 
	C71.406830,74.947128 68.735077,74.950233 65.923279,74.704697 
	C65.482758,73.979797 65.182304,73.503548 64.881851,73.027298 
	C68.925797,70.875809 72.969734,68.724312 77.185745,66.241928 
z"/>
<path fill="#15706D" opacity="1.000000" stroke="none" 
	d="
M64.504036,73.030098 
	C65.182304,73.503548 65.482758,73.979797 65.797119,74.977242 
	C65.856323,76.631393 65.901619,77.764359 65.558838,78.944672 
	C62.807724,79.074753 60.444698,79.157478 58.081676,79.240196 
	C57.817463,77.374924 57.553249,75.509651 57.152691,73.344566 
	C59.386303,73.040802 61.756264,73.036850 64.504036,73.030098 
z"/>
<path fill="#CCDFDF" opacity="1.000000" stroke="none" 
	d="
M234.012817,105.459122 
	C234.411575,106.044121 234.509232,106.625557 234.606903,107.207001 
	C234.196747,107.201988 233.786575,107.196968 233.376419,107.191956 
	C233.488174,106.613159 233.599945,106.034370 234.012817,105.459122 
z"/>
<path fill="#AAD4D3" opacity="1.000000" stroke="none" 
	d="
M144.593613,120.746078 
	C145.249710,121.374847 145.579300,121.864594 145.600098,122.810440 
	C141.187561,124.440826 137.147018,126.212616 132.965851,126.654747 
	C126.023888,127.388817 118.897026,127.808655 113.141708,123.127655 
	C117.690369,121.688332 121.840477,120.368454 126.365173,119.036880 
	C130.798294,116.992058 134.856827,114.958923 138.915359,112.925797 
	C140.027390,113.944328 141.139435,114.962868 142.602829,115.984726 
	C143.391830,117.527718 143.829468,119.067390 144.593613,120.746078 
z"/>
<path fill="#7BB7B7" opacity="1.000000" stroke="none" 
	d="
M138.927521,112.939575 
	C134.856827,114.958923 130.798294,116.992058 126.363205,118.612938 
	C125.979935,116.525330 125.973228,114.849968 125.966515,113.174606 
	C125.966515,113.174606 125.989761,112.996292 126.001038,112.906784 
	C131.102966,111.239784 136.193604,109.662300 141.665543,108.310577 
	C142.046829,108.536354 142.038116,108.997963 142.038116,108.997963 
	C142.038116,108.997963 141.961166,109.426033 141.620987,109.718658 
	C140.502029,110.988594 139.723251,111.965904 138.944473,112.943214 
	C138.944473,112.943214 138.939682,112.953362 138.927521,112.939575 
z"/>
<path fill="#AAD4D3" opacity="1.000000" stroke="none" 
	d="
M154.582870,111.938683 
	C153.596344,111.504601 152.902451,111.007126 152.118622,110.188110 
	C152.651031,109.436218 153.273376,109.005859 153.895721,108.575500 
	C154.222321,109.675430 154.548904,110.775360 154.582870,111.938683 
z"/>
<path fill="#AAD4D3" opacity="1.000000" stroke="none" 
	d="
M142.427185,108.998703 
	C142.038116,108.997963 142.046829,108.536354 142.041748,108.305740 
	C142.465240,107.759521 142.893814,107.443909 143.570984,107.034477 
	C144.722412,107.119003 145.625229,107.297348 146.528061,107.475693 
	C146.547318,107.823280 146.566574,108.170868 146.585831,108.518463 
	C145.329315,108.678787 144.072784,108.839119 142.427185,108.998703 
z"/>
<path fill="#AAD4D3" opacity="1.000000" stroke="none" 
	d="
M139.326599,112.954857 
	C139.723251,111.965904 140.502029,110.988594 141.609741,109.935837 
	C141.195374,110.895760 140.452057,111.931129 139.326599,112.954857 
z"/>
<path fill="#AAD4D3" opacity="1.000000" stroke="none" 
	d="
M149.994904,110.330292 
	C149.291153,110.887764 148.575394,111.121773 147.498230,111.470459 
	C147.784439,110.534302 148.432053,109.483444 149.079666,108.432587 
	C149.380737,108.957336 149.681808,109.482079 149.994904,110.330292 
z"/>
<path fill="#AAD4D3" opacity="1.000000" stroke="none" 
	d="
M143.744949,114.160027 
	C143.818649,114.545822 143.651566,115.094048 143.233948,115.793762 
	C143.156982,115.404327 143.330582,114.863396 143.744949,114.160027 
z"/>
<path fill="#7CCCCB" opacity="1.000000" stroke="none" 
	d="
M146.229462,104.878922 
	C146.145142,104.676613 146.300812,104.383957 146.694031,103.998779 
	C146.777557,104.200371 146.623505,104.494476 146.229462,104.878922 
z"/>
<path fill="#F9FCFB" opacity="1.000000" stroke="none" 
	d="
M112.743156,123.247108 
	C118.897026,127.808655 126.023888,127.388817 132.965851,126.654747 
	C137.147018,126.212616 141.187561,124.440826 145.626495,123.114464 
	C146.552628,123.767792 147.143585,124.573212 147.617584,125.916992 
	C145.380264,130.316223 143.259888,134.177078 141.139526,138.037933 
	C140.279984,138.931717 139.420441,139.825500 137.950256,140.888916 
	C135.694031,141.224655 134.048416,141.390762 132.205292,141.576797 
	C133.350464,142.973572 134.207123,144.018433 135.063766,145.063293 
	C135.063766,145.063293 135.016983,145.001221 134.788666,144.998825 
	C134.560364,144.996429 134.063248,144.963318 134.063248,144.963318 
	C133.592743,144.963699 133.122238,144.964066 132.094528,144.969864 
	C131.537323,144.975281 131.125366,144.938522 131.125366,144.938522 
	C131.125366,144.938522 131.063171,144.476288 131.013138,143.828598 
	C129.431931,142.454849 127.871086,141.047134 126.374344,141.112274 
	C115.912766,141.567490 105.464447,142.327347 95.011871,142.989655 
	C92.800995,133.448196 90.590118,123.906738 88.097900,113.853455 
	C87.836243,112.935974 87.855919,112.530319 87.882286,111.717041 
	C85.580521,100.826874 83.272057,90.344307 80.963600,79.861748 
	C83.081024,79.592873 85.198441,79.323997 87.648438,79.323975 
	C87.845467,81.417900 87.633163,83.241020 87.587120,85.068344 
	C87.331093,95.228615 89.791466,104.454506 97.110687,112.330383 
	C101.520988,117.462730 105.952042,122.081596 112.743156,123.247108 
z"/>
<path fill="#FDFEFE" opacity="1.000000" stroke="none" 
	d="
M63.840431,111.059074 
	C64.425240,106.597252 64.880844,102.113701 65.626534,97.678932 
	C66.630547,91.707893 67.858154,85.774460 69.439011,79.367096 
	C71.741898,78.833649 73.595589,78.757988 75.449272,78.682335 
	C76.368980,78.799850 77.288689,78.917358 78.572075,79.558853 
	C79.237068,82.034035 79.477707,83.996910 79.850166,85.934441 
	C81.497971,94.506218 83.183678,103.070709 84.400284,111.685318 
	C77.675514,111.740524 71.406120,111.748245 64.974915,111.587318 
	C64.559532,111.209412 64.268623,111.114189 63.914375,111.115875 
	C63.888390,111.098747 63.840431,111.059074 63.840431,111.059074 
z"/>
<path fill="#49C8C5" opacity="1.000000" stroke="none" 
	d="
M96.994331,112.017540 
	C89.791466,104.454506 87.331093,95.228615 87.587120,85.068344 
	C87.633163,83.241020 87.845467,81.417900 87.994827,79.129044 
	C87.119156,73.953003 90.432503,73.330368 94.135841,72.718185 
	C93.991020,74.850807 93.457848,76.996513 92.987694,79.155952 
	C90.483711,90.656952 92.789360,101.265144 98.684891,111.537712 
	C97.935204,111.957626 97.464767,111.987587 96.994331,112.017540 
z"/>
<path fill="#CCDFDF" opacity="1.000000" stroke="none" 
	d="
M84.855675,111.637833 
	C83.183678,103.070709 81.497971,94.506218 79.850166,85.934441 
	C79.477707,83.996910 79.237068,82.034035 78.900589,79.675461 
	C79.400993,79.382103 79.936554,79.496094 80.717857,79.735916 
	C83.272057,90.344307 85.580521,100.826874 87.501823,111.680786 
	C86.361671,111.914040 85.608673,111.775940 84.855675,111.637833 
z"/>
<path fill="#A3B1B0" opacity="1.000000" stroke="none" 
	d="
M75.350899,78.319237 
	C73.595589,78.757988 71.741898,78.833649 69.435440,78.947296 
	C68.515862,79.003571 68.049065,79.021851 66.994965,79.060005 
	C66.407669,79.079887 65.946922,78.897316 65.946922,78.897316 
	C65.901619,77.764359 65.856323,76.631393 65.937180,75.225891 
	C68.735077,74.950233 71.406830,74.947128 74.415283,74.964874 
	C74.918831,75.975853 75.085678,76.965996 75.350899,78.319237 
z"/>
<path fill="#097C77" opacity="1.000000" stroke="none" 
	d="
M96.045639,72.713867 
	C95.908867,72.917442 95.686226,72.902168 95.140228,72.796158 
	C95.197838,72.635292 95.578804,72.565155 96.045639,72.713867 
z"/>
<path fill="#FEFFFE" opacity="1.000000" stroke="none" 
	d="
M164.947266,70.384430 
	C165.243439,69.576118 165.596375,69.100082 165.976257,68.313705 
	C167.462067,68.567291 168.920929,69.131226 170.689896,69.847656 
	C170.505524,70.674500 169.932587,71.309769 169.565140,72.047394 
	C169.457230,72.264000 169.932220,72.770966 170.457916,73.228104 
	C170.367767,73.784668 169.959778,74.257973 168.918304,74.862823 
	C167.823761,75.000595 167.362732,75.006813 166.901688,75.013031 
	C166.269135,73.580917 165.636581,72.148811 164.947266,70.384430 
z"/>
<path fill="#F5F9FA" opacity="1.000000" stroke="none" 
	d="
M166.902298,75.306122 
	C167.362732,75.006813 167.823761,75.000595 168.629990,74.993423 
	C168.680496,75.448677 168.385818,75.904892 167.989349,76.620636 
	C167.559341,76.453178 167.231125,76.026192 166.902298,75.306122 
z"/>
<path fill="#EDF1F0" opacity="1.000000" stroke="none" 
	d="
M65.558838,78.944672 
	C65.946922,78.897316 66.407669,79.079887 66.650528,79.126747 
	C65.927208,83.973511 64.962021,88.773613 63.989883,93.572311 
	C63.961388,93.712959 63.807503,93.957901 63.799515,93.954399 
	C63.418987,93.787888 63.048126,93.599274 62.444981,93.255013 
	C61.204025,91.197601 60.194263,89.298332 58.987602,87.094193 
	C58.526608,85.425926 58.262508,84.062523 57.914112,82.356796 
	C57.899323,81.321800 57.968830,80.629135 58.060005,79.588333 
	C60.444698,79.157478 62.807724,79.074753 65.558838,78.944672 
z"/>
<path fill="#FDFEFE" opacity="1.000000" stroke="none" 
	d="
M60.821632,120.029541 
	C61.182030,118.295433 61.542427,116.561317 62.442001,114.426208 
	C70.631638,114.044250 78.282097,114.063301 85.932564,114.082352 
	C87.694481,122.482094 89.469040,130.879227 91.207283,139.283859 
	C91.539879,140.892014 91.729446,142.529739 91.561073,144.584534 
	C84.145584,145.677063 77.128456,146.145309 70.170959,147.064819 
	C65.038361,147.743179 60.482544,151.488068 54.905796,150.073135 
	C56.455959,141.975800 58.018509,133.880798 59.543625,125.778740 
	C59.787132,124.485146 59.862774,123.159958 60.005135,121.424210 
	C59.994247,120.999039 60.000393,120.999954 60.200241,120.894775 
	C60.658783,120.601768 60.799301,120.348419 60.821632,120.029541 
z"/>
<path fill="#E9F0F0" opacity="1.000000" stroke="none" 
	d="
M54.774307,150.383438 
	C60.482544,151.488068 65.038361,147.743179 70.170959,147.064819 
	C77.128456,146.145309 84.145584,145.677063 91.557945,145.005554 
	C92.318130,147.698746 92.657516,150.401611 92.982246,153.541443 
	C83.214745,153.657013 73.463539,153.242569 63.708054,153.070801 
	C60.768139,153.019058 57.816349,153.641617 54.451309,153.966705 
	C54.236015,152.883316 54.439415,151.788528 54.774307,150.383438 
z"/>
<path fill="#E76440" opacity="1.000000" stroke="none" 
	d="
M141.504517,138.023132 
	C143.259888,134.177078 145.380264,130.316223 147.725739,126.197479 
	C147.950836,125.939606 148.446564,125.948601 148.692444,125.921188 
	C149.952652,128.374222 150.966980,130.854660 151.981873,133.664688 
	C150.499756,134.885590 149.017029,135.776886 147.757263,137.065735 
	C147.980209,137.463287 147.910538,137.917786 147.910538,137.917786 
	C145.896866,137.947968 143.883179,137.978134 141.504517,138.023132 
z"/>
<path fill="#3F9B96" opacity="1.000000" stroke="none" 
	d="
M111.009155,52.578514 
	C106.638306,57.052826 103.662956,62.957371 96.464661,64.004959 
	C96.978378,61.560482 97.889763,59.094803 98.955673,56.295448 
	C100.340607,55.109474 101.571022,54.257175 102.945679,53.110573 
	C105.494072,52.031002 107.898239,51.245731 110.631187,50.375092 
	C110.982452,50.943954 111.004929,51.598190 111.009155,52.578514 
z"/>
<path fill="#FEFFFE" opacity="1.000000" stroke="none" 
	d="
M44.450333,69.539314 
	C44.412857,69.478363 44.487812,69.600266 44.450333,69.539314 
z"/>
<path fill="#F7B95C" opacity="1.000000" stroke="none" 
	d="
M205.995224,129.375458 
	C206.445068,127.345741 202.929153,124.680016 207.631561,124.008179 
	C207.588776,126.611778 207.178772,129.222031 206.384384,131.915833 
	C205.998856,131.249695 205.997696,130.500000 205.995224,129.375458 
z"/>
<path fill="#E5EFEE" opacity="1.000000" stroke="none" 
	d="
M95.044853,143.356552 
	C105.464447,142.327347 115.912766,141.567490 126.374344,141.112274 
	C127.871086,141.047134 129.431931,142.454849 130.969910,143.599426 
	C123.564407,145.006775 116.152702,146.000305 108.739487,146.982452 
	C105.001114,147.477737 101.259987,147.952301 97.265366,148.733368 
	C96.366356,147.261475 95.722092,145.492462 95.044853,143.356552 
z"/>
<path fill="#BDCBC8" opacity="1.000000" stroke="none" 
	d="
M125.071609,153.208557 
	C125.139984,153.453918 124.916985,153.763321 124.410950,154.148804 
	C124.345360,153.907455 124.562798,153.590012 125.071609,153.208557 
z"/>
<path fill="#E5EFEE" opacity="1.000000" stroke="none" 
	d="
M134.038818,145.270020 
	C134.063248,144.963318 134.560364,144.996429 134.807465,145.029877 
	C134.871933,145.389160 134.689316,145.714996 134.227203,146.114624 
	C133.969940,145.984528 133.992157,145.780609 134.038818,145.270020 
z"/>
<path fill="#E5EFEE" opacity="1.000000" stroke="none" 
	d="
M131.161102,145.121521 
	C131.125366,144.938522 131.537323,144.975281 131.742493,144.995270 
	C131.697403,145.111664 131.447113,145.208084 131.161102,145.121521 
z"/>
<path fill="#A3B1B0" opacity="1.000000" stroke="none" 
	d="
M86.230408,114.045937 
	C78.282097,114.063301 70.631638,114.044250 62.518005,114.054749 
	C62.489105,113.006653 62.923374,111.929008 63.599037,110.955215 
	C63.840431,111.059074 63.888390,111.098747 64.044609,111.325363 
	C64.200829,111.551979 64.641090,111.780754 64.641090,111.780754 
	C64.641090,111.780754 65.136734,111.755959 65.136734,111.755966 
	C71.406120,111.748245 77.675514,111.740524 84.400284,111.685318 
	C85.608673,111.775940 86.361671,111.914040 87.495132,112.088402 
	C87.855919,112.530319 87.836243,112.935974 87.766136,113.643005 
	C87.319893,113.966087 86.924072,113.987801 86.230408,114.045937 
z"/>
<path fill="#81CFCE" opacity="1.000000" stroke="none" 
	d="
M97.110687,112.330383 
	C97.464767,111.987587 97.935204,111.957626 98.757698,111.881348 
	C107.778679,112.249634 116.447594,112.664238 125.541519,113.126724 
	C125.973228,114.849968 125.979935,116.525330 125.988617,118.624634 
	C121.840477,120.368454 117.690369,121.688332 113.141708,123.127655 
	C105.952042,122.081596 101.520988,117.462730 97.110687,112.330383 
z"/>
<path fill="#16B7B4" opacity="1.000000" stroke="none" 
	d="
M120.966797,80.720360 
	C120.950165,81.130943 120.540222,81.096161 120.335747,81.089859 
	C117.975853,80.429253 115.820435,79.774948 112.407921,78.739044 
	C115.576584,77.692947 117.864998,76.937454 120.610764,76.030975 
	C120.762314,77.771088 120.872871,79.040428 120.966797,80.720360 
z"/>
<path fill="#16B7B4" opacity="1.000000" stroke="none" 
	d="
M124.578064,55.564262 
	C124.488762,55.619511 124.447754,55.399597 124.447754,55.399597 
	C124.447754,55.399597 124.667366,55.509010 124.578064,55.564262 
z"/>
<path fill="#E5EFEE" opacity="1.000000" stroke="none" 
	d="
M135.314819,145.064423 
	C134.207123,144.018433 133.350464,142.973572 132.205292,141.576797 
	C134.048416,141.390762 135.694031,141.224655 137.674225,141.038361 
	C137.374527,142.133881 136.740234,143.249588 136.085312,144.686859 
	C135.898422,145.027481 135.732147,145.046524 135.314819,145.064423 
z"/>
<path fill="#ED8363" opacity="1.000000" stroke="none" 
	d="
M143.975388,141.013123 
	C144.640762,143.527924 144.166473,143.927780 141.203705,143.000824 
	C142.243866,142.007568 143.109619,141.510345 143.975388,141.013123 
z"/>
<path fill="#E76440" opacity="1.000000" stroke="none" 
	d="
M143.619537,141.006287 
	C143.109619,141.510345 142.243866,142.007568 141.190186,142.751038 
	C140.582687,142.673386 140.163086,142.349487 139.743484,142.025589 
	C140.916885,141.683548 142.090302,141.341507 143.619537,141.006287 
z"/>
<path fill="#F3734D" opacity="1.000000" stroke="none" 
	d="
M148.095337,137.867752 
	C147.910538,137.917786 147.980209,137.463287 147.990723,137.233673 
	C148.171188,137.175583 148.352493,137.338425 148.497803,137.528748 
	C148.517532,137.554596 148.357117,137.718002 148.095337,137.867752 
z"/>
<path fill="#F7B95C" opacity="1.000000" stroke="none" 
	d="
M199.039352,132.180450 
	C199.163681,130.979599 199.579269,129.913635 199.994858,128.847656 
	C200.949799,129.585892 201.904739,130.324142 202.859665,131.062378 
	C201.683304,131.480026 200.506958,131.897659 199.039352,132.180450 
z"/>
<path fill="#CCDFDF" opacity="1.000000" stroke="none" 
	d="
M60.635796,120.142624 
	C60.799301,120.348419 60.658783,120.601768 60.200176,120.891785 
	C60.074413,120.701706 60.224312,120.455605 60.635796,120.142624 
z"/>
<path fill="#CCD9D6" opacity="1.000000" stroke="none" 
	d="
M64.974915,111.587311 
	C65.136734,111.755959 64.641090,111.780754 64.641090,111.780754 
	C64.641090,111.780754 64.200829,111.551979 64.070595,111.342484 
	C64.268623,111.114189 64.559532,111.209412 64.974915,111.587311 
z"/>
</svg>